G04*
G04 #@! TF.GenerationSoftware,Altium Limited,Altium Designer,23.3.1 (30)*
G04*
G04 Layer_Physical_Order=2*
G04 Layer_Color=16711680*
%FSLAX44Y44*%
%MOMM*%
G71*
G04*
G04 #@! TF.SameCoordinates,CBA1B8D9-47E8-49AD-825A-66903E3D66A9*
G04*
G04*
G04 #@! TF.FilePolarity,Positive*
G04*
G01*
G75*
%ADD10C,0.5000*%
%ADD54C,0.7500*%
%ADD55C,1.0000*%
%ADD56C,0.5500*%
%ADD57C,1.5000*%
%ADD58C,1.5240*%
%ADD59C,2.0000*%
%ADD60O,1.5000X2.0000*%
%ADD61O,1.5240X2.0320*%
%ADD62R,1.7780X1.5240*%
%ADD63O,1.7780X1.5240*%
%ADD64O,0.8000X3.0000*%
%ADD65O,2.0320X1.5240*%
%ADD66O,2.0000X1.5000*%
%ADD67O,2.5400X1.5240*%
%ADD68R,2.5400X1.5240*%
%ADD69O,2.0000X2.5000*%
%ADD70O,2.5000X4.5000*%
%ADD71R,2.5000X4.5000*%
%ADD72O,4.5000X2.5000*%
%ADD73O,2.5000X1.2000*%
%ADD74R,2.5000X1.2000*%
%ADD75O,2.5400X1.2700*%
%ADD76R,2.5400X1.2700*%
%ADD77C,3.0000*%
G04:AMPARAMS|DCode=78|XSize=1mm|YSize=2mm|CornerRadius=0mm|HoleSize=0mm|Usage=FLASHONLY|Rotation=225.000|XOffset=0mm|YOffset=0mm|HoleType=Round|Shape=Round|*
%AMOVALD78*
21,1,1.0000,1.0000,0.0000,0.0000,315.0*
1,1,1.0000,-0.3536,0.3536*
1,1,1.0000,0.3536,-0.3536*
%
%ADD78OVALD78*%

G04:AMPARAMS|DCode=79|XSize=2mm|YSize=3mm|CornerRadius=0mm|HoleSize=0mm|Usage=FLASHONLY|Rotation=45.000|XOffset=0mm|YOffset=0mm|HoleType=Round|Shape=Round|*
%AMOVALD79*
21,1,1.0000,2.0000,0.0000,0.0000,135.0*
1,1,2.0000,0.3536,-0.3536*
1,1,2.0000,-0.3536,0.3536*
%
%ADD79OVALD79*%

G04:AMPARAMS|DCode=80|XSize=2mm|YSize=3mm|CornerRadius=0mm|HoleSize=0mm|Usage=FLASHONLY|Rotation=45.000|XOffset=0mm|YOffset=0mm|HoleType=Round|Shape=Rectangle|*
%AMROTATEDRECTD80*
4,1,4,0.3536,-1.7678,-1.7678,0.3536,-0.3536,1.7678,1.7678,-0.3536,0.3536,-1.7678,0.0*
%
%ADD80ROTATEDRECTD80*%

%ADD81C,1.6000*%
G04:AMPARAMS|DCode=82|XSize=1.5mm|YSize=1.6mm|CornerRadius=0mm|HoleSize=0mm|Usage=FLASHONLY|Rotation=315.000|XOffset=0mm|YOffset=0mm|HoleType=Round|Shape=Rectangle|*
%AMROTATEDRECTD82*
4,1,4,-1.0960,-0.0354,0.0354,1.0960,1.0960,0.0354,-0.0354,-1.0960,-1.0960,-0.0354,0.0*
%
%ADD82ROTATEDRECTD82*%

%ADD83R,1.3000X1.0000*%
G04:AMPARAMS|DCode=84|XSize=1mm|YSize=1.3mm|CornerRadius=0mm|HoleSize=0mm|Usage=FLASHONLY|Rotation=135.000|XOffset=0mm|YOffset=0mm|HoleType=Round|Shape=Rectangle|*
%AMROTATEDRECTD84*
4,1,4,0.8132,0.1061,-0.1061,-0.8132,-0.8132,-0.1061,0.1061,0.8132,0.8132,0.1061,0.0*
%
%ADD84ROTATEDRECTD84*%

%ADD85R,1.0000X1.3000*%
%ADD86R,1.5000X1.6000*%
G04:AMPARAMS|DCode=87|XSize=0.65mm|YSize=1.7mm|CornerRadius=0mm|HoleSize=0mm|Usage=FLASHONLY|Rotation=315.000|XOffset=0mm|YOffset=0mm|HoleType=Round|Shape=Round|*
%AMOVALD87*
21,1,1.0500,0.6500,0.0000,0.0000,45.0*
1,1,0.6500,-0.3712,-0.3712*
1,1,0.6500,0.3712,0.3712*
%
%ADD87OVALD87*%

G04:AMPARAMS|DCode=88|XSize=0.65mm|YSize=1.7mm|CornerRadius=0mm|HoleSize=0mm|Usage=FLASHONLY|Rotation=225.000|XOffset=0mm|YOffset=0mm|HoleType=Round|Shape=Round|*
%AMOVALD88*
21,1,1.0500,0.6500,0.0000,0.0000,315.0*
1,1,0.6500,-0.3712,0.3712*
1,1,0.6500,0.3712,-0.3712*
%
%ADD88OVALD88*%

G04:AMPARAMS|DCode=89|XSize=1.5mm|YSize=1.6mm|CornerRadius=0mm|HoleSize=0mm|Usage=FLASHONLY|Rotation=225.000|XOffset=0mm|YOffset=0mm|HoleType=Round|Shape=Rectangle|*
%AMROTATEDRECTD89*
4,1,4,-0.0354,1.0960,1.0960,-0.0354,0.0354,-1.0960,-1.0960,0.0354,-0.0354,1.0960,0.0*
%
%ADD89ROTATEDRECTD89*%

%ADD90R,1.6000X1.5000*%
%ADD91C,0.7000*%
%ADD92R,2.9750X2.1750*%
%ADD93R,2.8500X2.0000*%
G36*
X1724000Y2149373D02*
Y2136000D01*
X1702000Y2114000D01*
X1701000Y2114000D01*
X1701000Y2138000D01*
X1718186Y2155186D01*
X1724000Y2149373D01*
D02*
G37*
G36*
X1664750Y2115750D02*
Y2112500D01*
X1659000Y2106750D01*
X1646250Y2118000D01*
X1641250Y2123000D01*
Y2123500D01*
X1641500D01*
X1649250Y2131250D01*
X1664750Y2115750D01*
D02*
G37*
G36*
X1658000Y2104500D02*
X1649750Y2095000D01*
Y2095250D01*
X1630500Y2114500D01*
X1638000Y2122000D01*
X1640500D01*
X1658000Y2104500D01*
D02*
G37*
G36*
X1756000Y2122000D02*
X1751000D01*
X1720000Y2091000D01*
X1720000Y2115000D01*
X1737684Y2132684D01*
X1756000Y2122000D01*
D02*
G37*
G36*
X1882750Y1265250D02*
Y1236500D01*
X1875250D01*
Y1238000D01*
X1867250Y1246000D01*
Y1265750D01*
X1882250D01*
X1882750Y1265250D01*
D02*
G37*
G36*
X1899750D02*
X1899500Y1265000D01*
Y1236250D01*
X1886250D01*
X1886000Y1236000D01*
Y1265500D01*
X1899500D01*
X1899750Y1265250D01*
D02*
G37*
D10*
X1022974Y2578750D02*
G03*
X1022974Y2578750I-9724J0D01*
G01*
X1002974Y908750D02*
G03*
X1002974Y908750I-9724J0D01*
G01*
X222974Y1348750D02*
G03*
X222974Y1348750I-9724J0D01*
G01*
X1832974Y868750D02*
G03*
X1832974Y868750I-9724J0D01*
G01*
X2032974Y2568750D02*
G03*
X2032974Y2568750I-9724J0D01*
G01*
X162974Y2578750D02*
G03*
X162974Y2578750I-9724J0D01*
G01*
X993250D02*
X1013250D01*
Y2560000D02*
Y2578750D01*
Y2597500D01*
Y2578750D02*
X1034000D01*
X973250Y908750D02*
X993250D01*
Y890000D02*
Y908750D01*
Y927500D01*
Y908750D02*
X1014000D01*
X193250Y1348750D02*
X213250D01*
Y1330000D02*
Y1348750D01*
Y1367500D01*
Y1348750D02*
X234000D01*
X1803250Y868750D02*
X1823250D01*
Y850000D02*
Y868750D01*
Y887500D01*
Y868750D02*
X1844000D01*
X2003250Y2568750D02*
X2023250D01*
Y2550000D02*
Y2568750D01*
Y2587500D01*
Y2568750D02*
X2044000D01*
X133250Y2578750D02*
X153250D01*
Y2560000D02*
Y2578750D01*
Y2597500D01*
Y2578750D02*
X174000D01*
X1507500Y2139500D02*
X1511000D01*
X1541039Y2152250D02*
X1610780Y2082510D01*
X1523750Y2152250D02*
X1541039D01*
X1511000Y2139500D02*
X1523750Y2152250D01*
X1542103Y2162500D02*
X1616436Y2088167D01*
X1490000Y2162500D02*
X1542103D01*
X1486500Y2159000D02*
X1490000Y2162500D01*
X1896250Y2032250D02*
X1912250D01*
X1880750Y2047750D02*
X1896250Y2032250D01*
X1744319Y2035681D02*
X1756389Y2047750D01*
X1880750D01*
X1650377Y2076853D02*
X1664000Y2090475D01*
Y2106875D01*
X1654562Y2116312D02*
X1664000Y2106875D01*
X1620750Y2106480D02*
X1639064Y2088167D01*
X1620750Y2106480D02*
Y2120500D01*
X1631000Y2130750D01*
X1759863Y2061887D02*
X1896637D01*
X1897000Y2062250D01*
X1712603Y2014627D02*
X1759863Y2061887D01*
X1706946Y2020284D02*
X1764412Y2077750D01*
X1793250D01*
D54*
X1161680Y943360D02*
X1288680D01*
X1114000Y1373000D02*
X1513500D01*
X1836959Y1612000D02*
X1876500D01*
X1875450Y1610950D02*
X1876500Y1612000D01*
X917300Y1610950D02*
X1412751D01*
X1056259Y1737950D02*
X1421200D01*
X1624136Y1319314D02*
X1624321Y1319500D01*
X1644911Y1661000D02*
X1751500D01*
X858300Y1712000D02*
X866300Y1720000D01*
X360386Y1319314D02*
X360571Y1319500D01*
X256750Y1659750D02*
X257000Y1660000D01*
X1307750Y2341450D02*
X1425050D01*
X722250D02*
X816950D01*
X711340Y2214250D02*
X747500D01*
X1091250Y2420250D02*
X1344750D01*
X995750Y2191750D02*
X1370250D01*
X857750Y2366850D02*
X1110391D01*
X1300950Y1717750D02*
X1306950Y1711750D01*
X1437340Y2329160D02*
X1575340D01*
X1425050Y2341450D02*
X1437340Y2329160D01*
X1392950Y2214450D02*
X1460250D01*
X1372750Y2392250D02*
X1460250D01*
Y2290650D02*
X1460750D01*
X1460250Y2239850D02*
X1460750D01*
X1460250Y2392250D02*
X1460750D01*
X1460250Y2366850D02*
X1460750D01*
X1460250Y2214450D02*
X1460750D01*
X1900250Y1240500D02*
X1910000D01*
X1890901Y1215100D02*
X1910000D01*
X235500Y869750D02*
X292750D01*
X209375Y1000875D02*
X260000Y1051500D01*
X209375Y895875D02*
X235500Y869750D01*
X209375Y895875D02*
Y1000875D01*
X1701312Y2138312D02*
X1718186Y2155186D01*
X458250Y1370200D02*
X478800Y1390750D01*
X512000D01*
X1532500Y1086400D02*
X1533150Y1085750D01*
X1532500Y1086400D02*
Y1126500D01*
X1624050Y1294000D02*
X1648500D01*
X1624821Y1319000D02*
X1671250D01*
X1312750Y1497500D02*
X1335500D01*
X1302000Y1486750D02*
X1312750Y1497500D01*
X1302000Y1465500D02*
Y1486750D01*
X1335500Y1497500D02*
X1340750Y1492250D01*
X1414000Y1533000D02*
X1983250D01*
X1373250Y1492250D02*
X1414000Y1533000D01*
X1340750Y1492250D02*
X1373250D01*
X1414250Y1514500D02*
X1514000D01*
X1378000Y1478250D02*
X1414250Y1514500D01*
X1327500Y1478250D02*
X1378000D01*
X1415250Y1497000D02*
X1985000D01*
X1355750Y1437500D02*
X1415250Y1497000D01*
X1289250Y1437500D02*
X1355750D01*
X1302000Y1465500D02*
X1311500Y1456000D01*
X1325790Y1479960D02*
X1327500Y1478250D01*
X2020530Y1209780D02*
Y1425470D01*
X1991250Y1454750D02*
X2020530Y1425470D01*
X1773750Y1454750D02*
X1991250D01*
X2031000Y1198250D02*
Y1438250D01*
X2002297Y1466953D02*
X2031000Y1438250D01*
X1434703Y1466953D02*
X2002297D01*
X2003580Y1480080D02*
X2014000Y1490500D01*
X1458080Y1480080D02*
X2003580D01*
X1764250Y1445250D02*
X1773750Y1454750D01*
X1485500Y1445250D02*
X1764250D01*
X1483750Y1447000D02*
X1485500Y1445250D01*
X1609500Y1581250D02*
X1613000D01*
X1609000Y1581750D02*
X1609500Y1581250D01*
X2008000Y1581750D02*
X2030500Y1604250D01*
X1021790Y1331210D02*
X1026000Y1327000D01*
X974614Y1331210D02*
X1021790D01*
X1049500Y1327000D02*
X1078139Y1355639D01*
X1500000D01*
X1500823Y1354816D01*
X1515164Y1236664D02*
X1522918Y1228910D01*
X1004310Y1305810D02*
X1009750Y1311250D01*
X1996550Y1163800D02*
X2031000Y1198250D01*
X2010000Y1283899D02*
Y1414750D01*
X1790000Y1440000D02*
X1984750D01*
X2010000Y1414750D01*
X1999950Y1189200D02*
X2020530Y1209780D01*
X1986200Y1189200D02*
X1999950D01*
X1994350Y1269600D02*
Y1285350D01*
X1986200Y1261450D02*
X1994350Y1269600D01*
X2004600Y1214600D02*
X2010490Y1220490D01*
X2010000Y1283899D02*
X2010490Y1283409D01*
Y1220490D02*
Y1283409D01*
X1416750Y1428000D02*
X1778000D01*
X1790000Y1440000D01*
X1986200Y1214600D02*
X2004600D01*
X1759750Y2201000D02*
X1777750Y2183000D01*
X1713250Y2201000D02*
X1759750D01*
X1672500Y2160250D02*
X1713250Y2201000D01*
X1342750Y1072750D02*
X1361150Y1054350D01*
Y1030850D02*
Y1054350D01*
X1365500Y1135750D02*
X1395600Y1105650D01*
X1365500Y1135750D02*
Y1157500D01*
Y1177700D02*
X1365679Y1177879D01*
X1389600D01*
X1429750Y1081500D02*
X1448300Y1081500D01*
X1448300Y1097450D02*
X1448300Y1081500D01*
X1393271Y1152479D02*
X1448300Y1097450D01*
X1389600Y1152479D02*
X1393271D01*
X1415000Y1203279D02*
X1445721D01*
X1367271Y1203279D02*
X1389600D01*
X1413350Y1230329D02*
X1415000Y1228679D01*
X1863850Y1285350D02*
X1937000D01*
X1937250Y1285600D01*
X1879001Y1227000D02*
Y1250750D01*
X1863750Y1214750D02*
Y1236250D01*
X1846750Y1253250D02*
X1863750Y1236250D01*
X1889291Y1250750D02*
X1890000D01*
X1900250Y1240500D01*
X1879001Y1227000D02*
X1890901Y1215100D01*
X1733966Y1252690D02*
X1761591D01*
X1711836Y1230560D02*
X1733966Y1252690D01*
X1714050Y1217800D02*
X1734290Y1238040D01*
X1700250Y1217800D02*
X1714050D01*
X1612464Y1205160D02*
X1716279D01*
X1734290Y1238040D02*
X1747640D01*
X1750000Y1240400D01*
X1739119Y1228000D02*
X1766000D01*
X1716279Y1205160D02*
X1739119Y1228000D01*
X1746750Y1215000D02*
X1750000D01*
X1724150Y1192400D02*
X1746750Y1215000D01*
X1700250Y1192400D02*
X1724150D01*
X255000Y2239850D02*
X282691D01*
X256750Y2263500D02*
X323750D01*
X1110391Y2366850D02*
X1123081Y2379540D01*
X1709498Y1860002D02*
X1734250Y1835250D01*
X1709498Y1860002D02*
Y1865553D01*
X1460750Y1763350D02*
X1512100D01*
X1526087Y1777337D01*
X1678204D01*
X1682244Y1773297D01*
X1696756D01*
X1700796Y1777337D01*
X1758836D01*
X1689582Y1787587D02*
X1690837D01*
X1694877Y1791627D01*
X1764755D01*
X1767632Y1788750D01*
X1760250Y1837750D02*
Y1844853D01*
X1724524Y1880579D02*
X1760250Y1844853D01*
X1739020Y1895075D02*
X1778844Y1855250D01*
X1780000D01*
X1460750Y1636350D02*
X1472360Y1647960D01*
X1537669D01*
X1541049Y1651340D01*
X1553219D01*
X1797750Y1806750D02*
X1799750Y1808750D01*
X1681000Y1806750D02*
X1797750D01*
X1663000Y1788750D02*
X1681000Y1806750D01*
X1460750Y1788750D02*
X1663000D01*
X1782439Y1881000D02*
X1799000D01*
X1753692Y1909747D02*
X1782439Y1881000D01*
X1791712Y1901500D02*
X1820000D01*
X1768748Y1924464D02*
X1791712Y1901500D01*
X1839000Y1924250D02*
X1840000Y1923250D01*
X1800212Y1924250D02*
X1839000D01*
X1784248Y1940214D02*
X1800212Y1924250D01*
X1815534Y1972250D02*
X1876500D01*
X1812248Y1968964D02*
X1815534Y1972250D01*
X1616500Y2315750D02*
X1616800Y2316050D01*
X1587200Y2341450D02*
X1587500Y2341750D01*
X1551500Y2239000D02*
X1552350Y2239850D01*
X1460750Y2265250D02*
X1531000D01*
X1532000Y2264250D01*
X1063250Y2392250D02*
X1091250Y2420250D01*
X857750Y2392250D02*
X1063250D01*
X857750Y2265250D02*
X859250Y2263750D01*
X1074250D01*
X857750Y2341450D02*
X1036800D01*
X1037750Y2340500D01*
X857750Y2316050D02*
X938450D01*
X939000Y2315500D01*
X233340Y2328340D02*
X276881D01*
X224250Y2319250D02*
X233340Y2328340D01*
X202000Y2319250D02*
X224250D01*
X254200Y2342250D02*
X255000Y2341450D01*
X216750Y2342250D02*
X254200D01*
X255450Y2316500D02*
X285250D01*
X255000Y2316050D02*
X255450Y2316500D01*
X255000Y2265250D02*
X256750Y2263500D01*
X269250Y2411000D02*
X745750D01*
X255000Y2396750D02*
X269250Y2411000D01*
X255000Y2392250D02*
Y2396750D01*
X203209Y1702750D02*
X225709Y1725250D01*
X200000Y1702750D02*
X203209D01*
X614710Y1725790D02*
X627950Y1712550D01*
X280581Y1725790D02*
X614710D01*
X280041Y1725250D02*
X280581Y1725790D01*
X225709Y1725250D02*
X280041D01*
X241750Y1167000D02*
X360300D01*
X254450Y1738250D02*
X254750Y1737950D01*
X218500Y1738250D02*
X254450D01*
X264500Y1192500D02*
X264600Y1192400D01*
X360300D01*
X254750Y1712550D02*
X255800Y1711500D01*
X286500D01*
X285750Y1220500D02*
X288450Y1217800D01*
X360300D01*
X302000Y1244000D02*
X302800Y1243200D01*
X360300D01*
X257000Y1660000D02*
X324750D01*
X254750Y1661750D02*
X256750Y1659750D01*
X324250Y1269750D02*
X325400Y1268600D01*
X360300D01*
Y1294000D02*
X361050Y1294750D01*
X401750D01*
X360571Y1319500D02*
X391500D01*
Y1322000D01*
X360300Y1319400D02*
X360386Y1319314D01*
X384950Y1344800D02*
X385000Y1344750D01*
X360300Y1344800D02*
X384950D01*
X986200Y1191450D02*
X1144950D01*
X986200Y1216850D02*
X1129900D01*
X1130000Y1216750D01*
X1076850Y1267650D02*
X1077250Y1267250D01*
X910000Y1369250D02*
X928460Y1387710D01*
X1093000Y1242250D02*
X1093750Y1241500D01*
X986200Y1242250D02*
X1093000D01*
X986200Y1267650D02*
X1076850D01*
X1026000Y1327000D02*
X1049500D01*
X973284Y1332540D02*
X974614Y1331210D01*
X857750Y1737950D02*
X858450Y1737250D01*
X1036750D01*
X857750Y1712550D02*
X858300Y1712000D01*
X940250Y1318250D02*
X940450Y1318450D01*
X896790Y1280290D02*
X922499D01*
X948019Y1305810D01*
X1004310D01*
X934331Y1332540D02*
X973284D01*
X933001Y1331210D02*
X934331Y1332540D01*
X897261Y1331210D02*
X933001D01*
X940450Y1318450D02*
X986200D01*
Y1343850D02*
X1037850D01*
X986200Y1369250D02*
X1017250D01*
X785050Y1217650D02*
X808455D01*
X857355Y1168750D01*
X887300D01*
X910000Y1191450D01*
X902150Y1267650D02*
X910000D01*
X877550Y1243050D02*
X902150Y1267650D01*
X861250Y1243050D02*
X877550D01*
X847910Y1255340D02*
X872021D01*
X880040Y1263359D01*
Y1263540D02*
X896790Y1280290D01*
X880040Y1263359D02*
Y1263540D01*
X785050Y1293850D02*
X809400D01*
X847910Y1255340D01*
X892050Y1293050D02*
X910000D01*
X867450Y1268450D02*
X892050Y1293050D01*
X861250Y1268450D02*
X867450D01*
X874850Y1293850D02*
X899450Y1318450D01*
X873011Y1306960D02*
X897261Y1331210D01*
X816040Y1306960D02*
X873011D01*
X899450Y1318450D02*
X910000D01*
X861250Y1293850D02*
X874850D01*
X886549Y1343850D02*
X910000D01*
X877309Y1334610D02*
X886549Y1343850D01*
X876610Y1334610D02*
X877309D01*
X861250Y1319250D02*
X876610Y1334610D01*
X1522918Y1228910D02*
X1553219D01*
X1556099Y1231790D01*
X1611234D01*
X1612464Y1230560D01*
X1711836D01*
X1761591Y1252690D02*
X1773881Y1240400D01*
X1826200D01*
X1728505Y1265800D02*
X1750000D01*
X1705905Y1243200D02*
X1728505Y1265800D01*
X1700250Y1243200D02*
X1705905D01*
X803750Y1319250D02*
X816040Y1306960D01*
X785050Y1319250D02*
X803750D01*
X873150Y1344650D02*
X897750Y1369250D01*
X861250Y1344650D02*
X873150D01*
X1766000Y1228000D02*
X1779000Y1215000D01*
X1569669Y1203210D02*
X1573307Y1206848D01*
X1610776D01*
X1612464Y1205160D01*
X1781000Y1292250D02*
X1782050Y1291200D01*
X1826200D01*
X830250Y1370050D02*
X861250D01*
X829800Y1370500D02*
X830250Y1370050D01*
X811000Y1370500D02*
X829800D01*
X822500Y1180250D02*
X842750Y1160000D01*
X810500Y1183000D02*
X813250Y1180250D01*
X822500D01*
X785050Y1268450D02*
X811450D01*
X706800Y1243050D02*
X785050D01*
X623850Y1293850D02*
X785050D01*
X622000Y1292000D02*
X623850Y1293850D01*
X621600Y1240400D02*
X622000Y1240000D01*
X558200Y1240400D02*
X621600D01*
X558950Y1215750D02*
X604500D01*
X558200Y1215000D02*
X558950Y1215750D01*
X605500Y1316500D02*
X782300D01*
X785050Y1319250D01*
X436500Y1370200D02*
X458250D01*
X465750Y1359500D02*
X503500D01*
X546400Y1316600D01*
X558200D01*
X451050Y1344800D02*
X465750Y1359500D01*
X436500Y1344800D02*
X451050D01*
X558200Y1265800D02*
X586050D01*
X586250Y1266000D01*
X773850Y1344650D02*
X785050D01*
X756750Y1361750D02*
X773850Y1344650D01*
X756750Y1361750D02*
Y1397500D01*
X1674550Y1344800D02*
X1675000Y1345250D01*
X1624050Y1319400D02*
X1624136Y1319314D01*
X1624050Y1344800D02*
X1674550D01*
X1531850Y1268600D02*
X1624050D01*
X1460750Y1661750D02*
X1461250Y1662250D01*
X1531750D01*
X1531500Y1268250D02*
X1531850Y1268600D01*
X1547300Y1243200D02*
X1624050D01*
X1563750Y1217500D02*
X1623750D01*
X1624050Y1217800D01*
X1811900Y1316600D02*
X1826200D01*
X1769250Y1359250D02*
X1811900Y1316600D01*
X1699938Y2138312D02*
X1701312D01*
X1926338Y1321050D02*
X1966750D01*
X1945000Y1285350D02*
X1974150D01*
X1906750Y1347750D02*
X1908050Y1346450D01*
X1966750D01*
X1923000Y1370750D02*
X1932250Y1380000D01*
X1907000Y1370750D02*
X1923000D01*
X1810500Y1253250D02*
X1846750D01*
X1805250Y1258500D02*
X1810500Y1253250D01*
X1842801Y1278500D02*
X1872761Y1308460D01*
X1811250Y1278500D02*
X1842801D01*
X1805250Y1272500D02*
X1811250Y1278500D01*
X1805250Y1258500D02*
Y1272500D01*
X1872761Y1308460D02*
X1913748D01*
X1926338Y1321050D01*
X1826200Y1265800D02*
X1844300D01*
X1863850Y1285350D01*
X897750Y1369250D02*
X910000D01*
X898750Y1242250D02*
X910000D01*
X874150Y1217650D02*
X898750Y1242250D01*
X861250Y1217650D02*
X874150D01*
X900100Y1216850D02*
X910000D01*
X875500Y1192250D02*
X900100Y1216850D01*
X861250Y1192250D02*
X875500D01*
X472600Y1316600D02*
X482000D01*
X450000Y1294000D02*
X472600Y1316600D01*
X436500Y1294000D02*
X450000D01*
X471700Y1291200D02*
X482000D01*
X449100Y1268600D02*
X471700Y1291200D01*
X436500Y1268600D02*
X449100D01*
X472150Y1240400D02*
X482000D01*
X449550Y1217800D02*
X472150Y1240400D01*
X436500Y1217800D02*
X449550D01*
X471500Y1215000D02*
X482000D01*
X448900Y1192400D02*
X471500Y1215000D01*
X436500Y1192400D02*
X448900D01*
X473600Y1189600D02*
X482000D01*
X451000Y1167000D02*
X473600Y1189600D01*
X436500Y1167000D02*
X451000D01*
X470300Y1265800D02*
X482000D01*
X447700Y1243200D02*
X470300Y1265800D01*
X436500Y1243200D02*
X447700D01*
X470750Y1342000D02*
X482000D01*
X448150Y1319400D02*
X470750Y1342000D01*
X436500Y1319400D02*
X448150D01*
X1734600Y1316600D02*
X1750000D01*
X1712000Y1294000D02*
X1734600Y1316600D01*
X1700250Y1294000D02*
X1712000D01*
X1733200Y1291200D02*
X1750000D01*
X1710600Y1268600D02*
X1733200Y1291200D01*
X1700250Y1268600D02*
X1710600D01*
X1735600Y1189600D02*
X1750000D01*
X1713000Y1167000D02*
X1735600Y1189600D01*
X1700250Y1167000D02*
X1713000D01*
X1379500Y1249500D02*
X1381350Y1251350D01*
X1393150Y1251350D01*
X1445721Y1203279D02*
X1446750Y1202250D01*
X1208900Y1028350D02*
X1209650Y1029100D01*
X1190350Y1028350D02*
X1208900Y1028350D01*
X1154000Y1044500D02*
Y1053250D01*
Y1044500D02*
X1170150Y1028350D01*
X1207250Y1053250D02*
X1209650Y1055650D01*
X1217250Y1063250D01*
X1186000Y1053250D02*
X1207250Y1053250D01*
X1209650Y1029100D02*
Y1055650D01*
X1229950Y1083250D02*
X1231550Y1084850D01*
X1260650D01*
X1297000Y1046750D02*
Y1055500D01*
Y1046750D02*
X1314150Y1029600D01*
X1329000Y1055500D02*
X1334350Y1050150D01*
X1334350Y1029600D01*
X1335600Y1030850D01*
X1361150Y1030850D01*
X1461000Y1061500D02*
X1461150Y1061350D01*
X1420900Y1072650D02*
X1429750Y1081500D01*
X1473700Y1105950D02*
X1473700Y1081500D01*
X1475650Y1175900D02*
X1476350Y1176600D01*
X1415000Y1177879D02*
X1416279Y1176600D01*
X1456150D01*
X1361650Y1208900D02*
X1367271Y1203279D01*
X1413350Y1261900D02*
X1413350Y1251350D01*
X1404250Y1271000D02*
X1413350Y1261900D01*
X1378750Y1271000D02*
X1404250D01*
X1361650Y1253900D02*
X1378750Y1271000D01*
X1361650Y1229100D02*
Y1253900D01*
X1393150Y1232229D02*
Y1251350D01*
X1413350Y1230329D02*
X1413350Y1251350D01*
X1344750Y2420250D02*
X1372750Y2392250D01*
X764500D02*
X857750D01*
X745750Y2411000D02*
X764500Y2392250D01*
X1278406Y1964594D02*
X1333496D01*
X1276250Y1966750D02*
X1278406Y1964594D01*
X1258831Y1943081D02*
X1333496D01*
X1258000Y1942250D02*
X1258831Y1943081D01*
X1255000Y2341500D02*
X1307700D01*
X1241705Y1922045D02*
X1333496D01*
X1239250Y1924500D02*
X1241705Y1922045D01*
X1218258Y1901008D02*
X1333496D01*
X1217500Y1900250D02*
X1218258Y1901008D01*
X857750Y2290650D02*
X1271650D01*
X1108250Y2265750D02*
X1113000Y2261000D01*
X1303500D01*
X1307750Y2265250D01*
X1198468Y1881032D02*
X1333496D01*
X1197750Y1881750D02*
X1198468Y1881032D01*
X1178650Y1860600D02*
X1333496D01*
X1177500Y1861750D02*
X1178650Y1860600D01*
X1175150Y2225210D02*
X1177500Y2227560D01*
X857750Y2239850D02*
X1030650D01*
X1045290Y2225210D01*
X1175150D01*
X1161313Y1839313D02*
X1333496D01*
X1160250Y1838250D02*
X1161313Y1839313D01*
X1296250Y1818630D02*
X1333496D01*
X869341Y2354560D02*
X869571Y2354790D01*
X869341Y2278360D02*
X871021Y2280040D01*
X1215381D01*
X857750Y2214450D02*
X973050D01*
X1057500Y2239500D02*
X1060250Y2236750D01*
X1160000D01*
X1168500Y2245250D01*
X1185500D01*
X1190900Y2239850D01*
X1317432D01*
X1485460Y2277960D02*
X1498150Y2290650D01*
X1460750Y2341450D02*
X1587200D01*
X1462550Y2314250D02*
X1568000D01*
X1580250Y2324250D02*
X1596750D01*
X1613500Y2341000D01*
X1575340Y2329160D02*
X1580250Y2324250D01*
X1123081Y2379540D02*
X1134919D01*
X1137499Y2376960D01*
X1128500Y2358750D02*
Y2359390D01*
Y2358750D02*
X1279750D01*
X1287850Y2366850D01*
X869571Y2354790D02*
X1054710D01*
X1067000Y2342500D01*
X1254000D01*
X816950Y2341450D02*
X830060Y2354560D01*
X869341D01*
X255000Y2366850D02*
X371650D01*
X276881Y2328340D02*
X285291Y2336750D01*
X616750D01*
X637450Y2316050D01*
X255000Y2290650D02*
X663400D01*
X714682D02*
X718960D01*
X731250Y2278360D01*
X869341D01*
X255000Y2214450D02*
X667300D01*
X684750Y2197000D01*
X648500Y2247750D02*
X656400Y2239850D01*
X304000Y2247750D02*
X648500D01*
X973050Y2214450D02*
X995750Y2191750D01*
X684750Y2197000D02*
X755500D01*
X772950Y2214450D01*
X857750D01*
X747500Y2214250D02*
X759990Y2226740D01*
X1006760D01*
X1020230Y2213270D01*
X1346250Y2214000D02*
X1362301D01*
X1375041Y2226740D01*
X1489510D01*
X1502250Y2214000D01*
X1370250Y2191750D02*
X1392950Y2214450D01*
X254750Y1788750D02*
X363291D01*
X377831Y1803290D01*
X1124541Y1788750D02*
X1138831Y1803040D01*
X857750Y1788750D02*
X1124541D01*
X254750Y1763350D02*
X378309D01*
X392499Y1777540D01*
X857750Y1763350D02*
X1111891D01*
X254750Y1636350D02*
X284441D01*
X763700Y1610950D02*
X857750D01*
X884450Y1584250D01*
X1858000Y1737750D02*
X1858200Y1737950D01*
X837000Y1687150D02*
X857750D01*
X1550950Y1722500D02*
X1563500D01*
X1541000Y1712550D02*
X1550950Y1722500D01*
X1460750Y1712550D02*
X1541000D01*
X1412751Y1610950D02*
X1425041Y1623240D01*
X1472341D01*
X1824419Y1624540D02*
X1836959Y1612000D01*
X857750Y1636350D02*
X1019400D01*
X905010Y1623240D02*
X917300Y1610950D01*
X747250Y1594500D02*
X763700Y1610950D01*
X671550D02*
X688000Y1594500D01*
X747250D01*
X254750Y1610950D02*
X671550D01*
X624500Y1643250D02*
X631400Y1636350D01*
X303250Y1643250D02*
X624500D01*
X254750Y1687150D02*
X659350D01*
X866300Y1720000D02*
X941000D01*
X1285778Y1699440D02*
X1298068Y1687150D01*
X1014500Y1717750D02*
X1300950D01*
X857750Y1687150D02*
X1244350D01*
X1257040Y1674460D01*
X1249750Y1643000D02*
X1256400Y1636350D01*
X1460750Y1687150D02*
X1462730Y1685170D01*
X1654670Y1676500D02*
X1734750D01*
X1646000Y1685170D02*
X1654670Y1676500D01*
X1462730Y1685170D02*
X1646000D01*
X1594750Y1720250D02*
X1669300D01*
X1677000Y1712550D01*
X1630300Y1737950D02*
X1857800D01*
X1421200D02*
X1434310Y1751060D01*
X1358650Y1763350D02*
X1460750D01*
X1609500Y1758750D02*
X1630300Y1737950D01*
X1434310Y1751060D02*
X1550060D01*
X1557750Y1758750D01*
X1609500D01*
X1763560Y1699440D02*
X1775000Y1688000D01*
X1840500D01*
X1751500Y1661000D02*
X1763250Y1672750D01*
X1800750D01*
X1812500Y1661000D01*
X1460750Y1610950D02*
X1471700Y1600000D01*
X1472341Y1623240D02*
X1481331Y1614250D01*
X1795250D01*
X1805540Y1624540D01*
X1824419D01*
X1818500Y1600000D02*
X1819250Y1600750D01*
X1471700Y1600000D02*
X1818500D01*
X1547300Y1637050D02*
X1556350Y1628000D01*
X1789000D01*
X1797350Y1636350D01*
X1779000Y1647250D02*
X1780500Y1648750D01*
X1665209Y1647250D02*
X1779000D01*
X884450Y1584250D02*
X1429000D01*
X1455700Y1610950D01*
X1460750D01*
X1779000Y1215000D02*
X1790750D01*
X1826200D01*
Y1240400D02*
X1835350D01*
X1845250Y1230500D01*
X1700250Y1370200D02*
X1701578Y1371528D01*
X575740Y1202710D02*
X578200Y1200250D01*
X664000D01*
X706800Y1243050D01*
X482000Y1189600D02*
X520350D01*
X533460Y1202710D01*
X575740D01*
X1700250Y1319400D02*
X1715400D01*
X1415083Y1152396D02*
X1461333Y1152396D01*
X1475650Y1128100D02*
Y1175900D01*
X1762314Y2003314D02*
X1780750Y2021750D01*
X1723917Y2003314D02*
X1762314D01*
X1780750Y2021750D02*
X1875000D01*
X1798244Y1954299D02*
X1812294Y1940250D01*
X1853500D01*
X1857500Y1944250D01*
X1864000Y2227750D02*
X1877300Y2214450D01*
X1661691Y2065539D02*
X1681250Y2085098D01*
X1886000Y1347750D02*
X1906750D01*
X1895040Y2173710D02*
X1900500Y2168250D01*
X1853324Y2173710D02*
X1895040D01*
X1844034Y2183000D02*
X1853324Y2173710D01*
X1681250Y2085098D02*
Y2122000D01*
X1672500Y2130750D02*
Y2160250D01*
Y2130750D02*
X1681250Y2122000D01*
X337850Y1045350D02*
Y1073400D01*
X337350Y1044850D02*
X337850Y1045350D01*
X323300Y976250D02*
Y1010600D01*
X324200Y1011500D02*
X337350Y1024650D01*
X323300Y1010600D02*
X324200Y1011500D01*
X332950Y1049250D02*
X337350Y1044850D01*
X292750Y869750D02*
X317700Y894700D01*
X368750D01*
X344100Y976850D02*
X369650D01*
X343500Y976250D02*
X344100Y976850D01*
X323300Y947050D02*
Y976250D01*
X299500Y923250D02*
X323300Y947050D01*
X271000Y923250D02*
X299500D01*
X241000Y992501D02*
X259500Y1011000D01*
X241000Y923250D02*
Y992501D01*
X281840Y995413D02*
X295750Y981503D01*
X296000Y1049250D02*
X332950D01*
X295750Y1011500D02*
X324200D01*
X281840Y995413D02*
Y1092000D01*
X433800Y894700D02*
X444950D01*
X171750Y2451500D02*
X1662750D01*
X171000Y2452250D02*
X171750Y2451500D01*
X240750Y1168000D02*
X241750Y1167000D01*
X190500Y1117500D02*
X324750D01*
X337850Y1104400D01*
Y1093600D02*
Y1104400D01*
X2005950Y1163800D02*
X2014600Y1155150D01*
X1986200Y1163800D02*
X1996550D01*
X2005950D01*
X2014600Y1134850D02*
Y1155150D01*
X1983700Y1189200D02*
X1986200D01*
X1955040Y1183440D02*
X1986200Y1214600D01*
X1965080Y1170580D02*
X1983700Y1189200D01*
X1955040Y1169341D02*
Y1183440D01*
X1941850Y1156151D02*
X1955040Y1169341D01*
X1941850Y1133600D02*
Y1156151D01*
X1965080Y1145370D02*
X1976600Y1133850D01*
X1965080Y1145370D02*
Y1170580D01*
X1924250Y1164300D02*
X1929300D01*
X1941750Y1176750D01*
Y1285350D01*
X1883500Y1176750D02*
Y1195000D01*
X1873500Y1166750D02*
X1883500Y1176750D01*
X1856000Y1166750D02*
X1873500D01*
X1722830Y867330D02*
X1723750Y868250D01*
X1657000Y867330D02*
X1722830D01*
X1863750Y1214750D02*
X1883500Y1195000D01*
X1888800Y1189700D01*
X1420900Y1031400D02*
Y1072650D01*
X1499150Y1094350D02*
X1507750Y1085750D01*
X1499150Y1094350D02*
Y1145900D01*
X1527710Y1203210D02*
X1569669D01*
X1526750Y1202250D02*
X1527710Y1203210D01*
X1473700Y1076800D02*
Y1081500D01*
X1382200Y1030000D02*
X1393500D01*
X1486500Y1205250D02*
X1499000D01*
X1415000Y1228679D02*
X1481321D01*
X1486500Y1223500D01*
X1476350Y1179559D02*
X1486500Y1189709D01*
Y1205250D01*
Y1223500D01*
X1476350Y1176600D02*
Y1179559D01*
X1332500Y1541250D02*
Y1541250D01*
Y1541250D02*
X1364000Y1509750D01*
X1235300Y1114000D02*
X1264500D01*
X1204550Y1083250D02*
X1235300Y1114000D01*
X1715400Y1319400D02*
X1738000Y1342000D01*
X1750000D01*
X1700250Y1344800D02*
X1723300D01*
X1737750Y1359250D01*
X1769250D01*
X1702105Y1371000D02*
X1726000D01*
X1330050Y1092750D02*
Y1153200D01*
X1297500Y1185750D02*
X1330050Y1153200D01*
X928460Y1387710D02*
X1091453D01*
X1091634Y1387528D01*
X1672000Y2370000D02*
X1675650Y2366850D01*
X517250Y1290500D02*
X557500D01*
X558200Y1291200D01*
X447250Y2468250D02*
X448500Y2467000D01*
X1794250D01*
X1092250Y1047500D02*
Y1062750D01*
X1102500Y1073000D01*
X1121250D01*
X1297500Y1185750D02*
Y1298250D01*
X1306500Y1307250D01*
X1066500Y1061000D02*
X1134000Y1128500D01*
X1066500Y1025750D02*
Y1061000D01*
Y1025750D02*
X1070250Y1022000D01*
X1092250D01*
X1340710Y1387710D02*
X1340750Y1387750D01*
X1766000Y1371000D02*
X1768750Y1373750D01*
X1726000Y1371000D02*
X1766000D01*
X1340750Y1387750D02*
X1742500D01*
X1992500Y1333750D02*
Y1376450D01*
X1988350Y1380600D02*
X1992500Y1376450D01*
X1968150Y1380600D02*
Y1383350D01*
X1927000Y1424500D02*
X1968150Y1383350D01*
X1849250Y1424500D02*
X1927000D01*
X1826200Y1401450D02*
X1849250Y1424500D01*
X1826200Y1342000D02*
Y1346297D01*
Y1401450D01*
X1863250Y1370500D02*
X1886000Y1347750D01*
X1863250Y1370500D02*
Y1408250D01*
X859500Y1660000D02*
X1073750D01*
X857750Y1661750D02*
X859500Y1660000D01*
X1113750Y1311250D02*
X1114250Y1311750D01*
X1009750Y1311250D02*
X1113750D01*
X1091634Y1387528D02*
X1108069D01*
X1108251Y1387710D01*
X1340710D01*
X1114000Y1367621D02*
Y1373000D01*
X986200Y1293050D02*
X986250Y1293000D01*
X1043500D01*
X1295041Y1316000D02*
X1300581Y1321540D01*
X1043000Y1010750D02*
X1057160Y996590D01*
X1092120D01*
X1172500Y1339750D02*
X1326000D01*
X1294331Y1316710D02*
X1295041Y1316000D01*
X1159540Y1316710D02*
X1294331D01*
X1362430Y942360D02*
X1489430D01*
X1624321Y1319500D02*
X1624821Y1319000D01*
X1553219Y1651340D02*
X1557268Y1647291D01*
X1665209D01*
X1644911Y1661000D02*
X1646661Y1662750D01*
X1647750D01*
X1875000Y2021750D02*
X1994750Y1902000D01*
X1482790Y1321540D02*
X1484500Y1323250D01*
X1300581Y1321540D02*
X1482790D01*
X1499000Y1205250D02*
X1559750Y1144500D01*
Y983750D02*
Y1144500D01*
X1460000Y1005000D02*
X1483500D01*
X1498500Y1020000D01*
X1465650Y1021400D02*
X1479500Y1035250D01*
X1057000Y1641250D02*
X1058750Y1643000D01*
X1249750D01*
X1457250Y1480910D02*
X1458080Y1480080D01*
X1457250Y1480910D02*
Y1482000D01*
X1433250Y1465500D02*
X1434703Y1466953D01*
X1994750Y1902000D02*
X2012250D01*
X1983250Y1533000D02*
X2003250Y1513000D01*
X382500Y2392000D02*
X722250D01*
X401750Y2368250D02*
X720500D01*
X637450Y2316050D02*
X721950D01*
X422000Y2263000D02*
X720250D01*
X656400Y2239850D02*
X721900D01*
X751350D02*
X857750D01*
X757600Y2290650D02*
X857750D01*
X751350Y2366850D02*
X857750D01*
X1144750Y2391250D02*
X1324250D01*
X1287850Y2366850D02*
X1324650D01*
X1016000Y2315250D02*
X1324500D01*
X1326790Y2277960D02*
X1485460D01*
X1325000Y2279540D02*
Y2290250D01*
X1220000Y2278500D02*
X1326790D01*
X1307750Y2265250D02*
X1324750D01*
X1020230Y2213270D02*
X1320770D01*
X1325000Y2214000D02*
X1346250D01*
X1354850Y2239850D02*
X1460250D01*
X1326671Y2228290D02*
X1343290D01*
X1354850Y2239850D01*
X1354350Y2290650D02*
X1460250D01*
X1357650Y2366850D02*
X1460250D01*
X1702000Y2391000D02*
X1926500D01*
X1675650Y2366850D02*
X1927150D01*
X1613500Y2341000D02*
X1927250D01*
X1616800Y2316050D02*
X1927200D01*
X1498150Y2290650D02*
X1927100D01*
X1648500Y2264250D02*
X1926750D01*
X1552350Y2239850D02*
X1927150D01*
X1877300Y2214450D02*
X1927300D01*
X1502250Y2214000D02*
X1673750D01*
X1687500Y2227750D01*
X1864000D01*
X383750Y1789000D02*
X721500D01*
X401250Y1763250D02*
X721750D01*
X627950Y1712550D02*
X721700D01*
X422000Y1660750D02*
X721250D01*
X631400Y1636350D02*
X721650D01*
X749100D02*
X857750D01*
X722000Y1610950D02*
X743200D01*
X755490Y1623240D01*
X905010D01*
X377831Y1803290D02*
X746710D01*
X761250Y1788750D01*
X857750D01*
X755150Y1763350D02*
X857750D01*
X1144750Y1788750D02*
X1324750D01*
X1306950Y1711750D02*
X1324500D01*
X1107250Y1661000D02*
X1324500D01*
X1256400Y1636350D02*
X1324650D01*
X1138831Y1803040D02*
X1352960D01*
X1367250Y1788750D01*
X1460750D01*
X1369650Y1687150D02*
X1460750D01*
X1356960Y1674460D02*
X1369650Y1687150D01*
X1298068D02*
X1347900D01*
X1360190Y1699440D01*
X1763560D01*
X1370100Y1636350D02*
X1460750D01*
X1767632Y1788750D02*
X1927750D01*
X1894992Y1762952D02*
X1927952D01*
X1668000Y1762250D02*
X1894992Y1762952D01*
X1858200Y1737950D02*
X1927800D01*
X1677000Y1712550D02*
X1927700D01*
X1840500Y1688000D02*
X1926750D01*
X1812500Y1661000D02*
X1927500D01*
X1797350Y1636350D02*
X1927650D01*
X1875450Y1610950D02*
X1927800D01*
X722000Y1687150D02*
X814650D01*
X826940Y1699440D01*
X1285778D01*
X1030351Y1751060D02*
X1030831Y1751540D01*
X1042669D01*
X1056259Y1737950D01*
X722000D02*
X827200D01*
X840310Y1751060D01*
X1030351D01*
X1441750Y1005000D02*
X1460000D01*
X1461150Y1041600D02*
X1461150Y1061350D01*
X1986200Y1240000D02*
Y1260500D01*
X1777750Y2183000D02*
X1844034D01*
X1609000Y1581750D02*
X2008000D01*
X1395600Y1105650D02*
X1401500Y1105650D01*
X1403500D01*
X1888800Y1189700D02*
X1910000D01*
X1782314Y2153314D02*
X1951250D01*
X1937250Y1285600D02*
Y1298000D01*
X1937000Y1285350D02*
X1941750D01*
X1701578Y1371528D02*
X1702105Y1371000D01*
X1420900Y1025850D02*
Y1031400D01*
Y1025850D02*
X1441750Y1005000D01*
X1441100Y1031400D02*
X1451100Y1021400D01*
X1465650D01*
X700619Y2355250D02*
X700659Y2355210D01*
X407669Y2353960D02*
X408959Y2355250D01*
X700619D01*
X384540Y2353960D02*
X407669D01*
X700659Y2355210D02*
X739710D01*
X371650Y2366850D02*
X384540Y2353960D01*
X739710Y2355210D02*
X751350Y2366850D01*
X663400Y2290650D02*
X677000Y2304250D01*
X744000D01*
X757600Y2290650D01*
X282691Y2239850D02*
X295291Y2227250D01*
X738750D02*
X751350Y2239850D01*
X295291Y2227250D02*
X700619D01*
X700659Y2227290D01*
X723841D01*
X723881Y2227250D01*
X738750D01*
X1344000Y2380500D02*
X1357650Y2366850D01*
X1137499Y2376960D02*
X1273460D01*
X1277000Y2380500D01*
X1344000D01*
X1271650Y2290650D02*
X1285500Y2304500D01*
X1340500D02*
X1354350Y2290650D01*
X1285500Y2304500D02*
X1303119D01*
X1303159Y2304460D01*
X1326341D01*
X1326381Y2304500D01*
X1340500D01*
X1177500Y2227560D02*
X1178230Y2228290D01*
X1303329D01*
X1303409Y2228210D01*
X1326591D01*
X1326671Y2228290D01*
X740960Y1777540D02*
X755150Y1763350D01*
X392499Y1777540D02*
X700079D01*
X700409Y1777210D01*
X723591D01*
X723921Y1777540D01*
X740960D01*
X671040Y1675460D02*
X825310D01*
X659350Y1687150D02*
X671040Y1675460D01*
X825310D02*
X837000Y1687150D01*
X296081Y1624710D02*
X737460D01*
X284441Y1636350D02*
X296081Y1624710D01*
X737460D02*
X749100Y1636350D01*
X1345000Y1777000D02*
X1358650Y1763350D01*
X1123001Y1774460D02*
X1164710D01*
X1167250Y1777000D01*
X1345000D01*
X1111891Y1763350D02*
X1123001Y1774460D01*
X1130000Y1758000D02*
X1173900D01*
X1179250Y1763350D01*
X1324650D01*
X1257040Y1674460D02*
X1303079D01*
X1303409Y1674790D01*
X1326591D01*
X1326921Y1674460D01*
X1356960D01*
X1031040Y1624710D02*
X1358460D01*
X1019400Y1636350D02*
X1031040Y1624710D01*
X1358460D02*
X1370100Y1636350D01*
D55*
X1622508Y1192558D02*
X1623200Y1193250D01*
X1826200Y1189600D02*
X1853650D01*
X1579577Y1192558D02*
X1622508D01*
X1798747Y1373750D02*
X1826200Y1346297D01*
X535247Y1391497D02*
X544500Y1400750D01*
X724250Y1192250D02*
X785050D01*
X723750Y1191750D02*
X724250Y1192250D01*
X1852500Y1190750D02*
X1859750D01*
X1852500D02*
X1853650Y1189600D01*
X1622050Y1169000D02*
X1624050Y1167000D01*
X1623200Y1193250D02*
X1624050Y1192400D01*
X558200Y1342000D02*
Y1349550D01*
X535247Y1371750D02*
X536000D01*
X785050Y1172700D02*
Y1192250D01*
Y1172700D02*
X797750Y1160000D01*
X812753D01*
X1826200Y1342000D02*
X1858000D01*
X1859750Y1341000D01*
X1875250Y1324750D01*
X1907000D01*
X717960Y1185960D02*
X723750Y1191750D01*
X558200Y1188960D02*
Y1189600D01*
X561540Y1188960D02*
X564540Y1185960D01*
X717960D01*
X1761997Y1410500D02*
X1798747Y1373750D01*
X1325250Y2007000D02*
X1344500Y1987750D01*
X1391462D01*
X1459464Y1919748D01*
X1325250Y2007000D02*
Y2112250D01*
X1487053Y2200303D02*
X1496553Y2190803D01*
X1413303Y2200303D02*
X1487053D01*
X1325250Y2112250D02*
X1413303Y2200303D01*
X1496553Y2190803D02*
X1681552D01*
X1704250Y2213500D01*
X1829500D01*
X1845250Y2197750D01*
X1931750D02*
X1932500Y2197000D01*
X1845250Y2197750D02*
X1931750D01*
X587250Y1048500D02*
X588500Y1049750D01*
X446497Y868253D02*
X479000D01*
X405710Y899040D02*
X434950Y869800D01*
X422000Y906500D02*
X433800Y894700D01*
X422000Y906500D02*
Y1001250D01*
X450000Y1029250D01*
X616000D01*
X405710Y899040D02*
Y1048500D01*
X428250D02*
X587250D01*
X389850Y976850D02*
Y1021650D01*
X378250Y1033250D02*
X389850Y1021650D01*
X378250Y1033250D02*
Y1138180D01*
X381000Y1140930D01*
X368750Y920100D02*
X389450D01*
X389850Y920500D01*
Y976850D01*
X368750Y869300D02*
X378650D01*
X389850Y880500D01*
Y920500D01*
X640790Y1162290D02*
X696000D01*
X1976600Y1113650D02*
X2013600D01*
X2014600Y1114650D01*
X1942850Y1113650D02*
X1976600D01*
X1241500Y1029100D02*
X1263600Y1007000D01*
X1229850Y1029100D02*
X1241500D01*
X1448250Y1410500D02*
X1761997D01*
X1499150Y1166100D02*
Y1182150D01*
X1312500Y1286250D02*
X1448250D01*
X1776000Y983750D02*
X1799250Y1007000D01*
X1416500D02*
X1439750Y983750D01*
X1263600Y1007000D02*
X1416500D01*
X1401000Y1024000D02*
Y1071000D01*
X1393500Y1030000D02*
X1416500Y1007000D01*
X1439750Y983750D02*
X1559750D01*
X1776000D01*
X1499150Y1182150D02*
X1499750Y1182750D01*
X1269750Y1400750D02*
X1279500Y1410500D01*
X1448250D01*
X1297000Y1055500D02*
X1300250Y1058750D01*
X1091990Y945810D02*
X1127440D01*
X1127750Y945500D01*
X1054030Y971220D02*
X1091990D01*
X1053500Y971750D02*
X1054030Y971220D01*
X1280850Y1149850D02*
X1282500Y1151500D01*
X1280850Y1084850D02*
Y1149850D01*
X1912750Y851500D02*
X2005500D01*
X1885500Y878750D02*
X1912750Y851500D01*
X1885500Y878750D02*
Y894580D01*
X2014600Y1114650D02*
X2022100D01*
X2040750Y886750D02*
Y1096000D01*
X2022100Y1114650D02*
X2040750Y1096000D01*
X2005500Y851500D02*
X2040750Y886750D01*
X1595250Y1169000D02*
X1622050D01*
X1473700Y1076800D02*
X1498500Y1052000D01*
X434950Y869800D02*
X444950D01*
X446497Y868253D01*
X558200Y1188960D02*
X561540D01*
X536000Y1371750D02*
X558200Y1349550D01*
X535247Y1371750D02*
Y1391497D01*
X544500Y1400750D02*
X723750D01*
X1269750D01*
X1401000Y1071000D02*
X1402500Y1072500D01*
X1403500Y1073500D01*
D56*
X1688389Y2057750D02*
X1752186Y2121548D01*
X1983650Y1495650D02*
X1985000Y1497000D01*
X1532250Y2134750D02*
X1547225D01*
X1699938Y2081158D02*
Y2138312D01*
X1389250Y1822750D02*
X1621250D01*
X1409750Y1926500D02*
X1448500Y1887750D01*
X1409750Y1926500D02*
Y1948000D01*
X1448500Y1887750D02*
X1585725D01*
X1373919Y1943081D02*
X1441750Y1875250D01*
X1353696Y1943081D02*
X1373919D01*
X1441750Y1875250D02*
X1584539D01*
X1421250Y1841500D02*
X1606250D01*
X1381718Y1881032D02*
X1421250Y1841500D01*
X1353696Y1881032D02*
X1381718D01*
X1353696Y1922045D02*
X1379465D01*
X1590250Y1851750D02*
X1634333Y1895833D01*
X1432250Y1851750D02*
X1590250D01*
X1382992Y1901008D02*
X1432250Y1851750D01*
X1606250Y1841500D02*
X1651500Y1886750D01*
X1377350Y1859650D02*
X1405500Y1831500D01*
X1611250D01*
X1661500Y1881750D01*
X1372687Y1839313D02*
X1389250Y1822750D01*
X1353696Y1818630D02*
X1358826Y1813500D01*
X1629250D01*
X1354646Y1859650D02*
X1377350D01*
X1353696Y1839313D02*
X1372687D01*
X1621250Y1822750D02*
X1669500Y1871000D01*
X1629250Y1813500D02*
X1677250Y1861500D01*
X1353696Y1860600D02*
X1354646Y1859650D01*
X1353696Y1901008D02*
X1382992D01*
X1583926Y1863324D02*
X1616436Y1895833D01*
X1379465Y1922045D02*
X1438186Y1863324D01*
X1583926D01*
X1353696Y1964594D02*
X1393156D01*
X1409750Y1948000D01*
X1689975Y2037255D02*
X1778971Y2126250D01*
X1689975Y2037255D02*
X1689975D01*
X1566066Y2153250D02*
X1637500D01*
X1432460Y2118961D02*
X1485000Y2066421D01*
X1461450Y1737250D02*
X1580250D01*
X1460750Y1737950D02*
X1461450Y1737250D01*
X1678718Y2048569D02*
X1687900Y2057750D01*
X1678662Y2048569D02*
X1678718D01*
X1687900Y2057750D02*
X1688389D01*
X1673005Y2054225D02*
X1699938Y2081158D01*
X1752186Y2121548D02*
Y2124936D01*
X1656034Y2071196D02*
X1656034D01*
X1965450Y1347750D02*
X1966750Y1346450D01*
X1485000Y2060500D02*
Y2066421D01*
Y2060500D02*
X1536529Y2008971D01*
X1537240D01*
X1504750Y2052775D02*
X1542897Y2014627D01*
X1756498Y1983248D02*
X1797964D01*
X1738500Y1965250D02*
X1756498Y1983248D01*
X1725750Y1965250D02*
X1738500D01*
X1721975Y1961475D02*
X1725750Y1965250D01*
X1720500Y1961475D02*
X1721975D01*
X1712603Y1969373D02*
X1720500Y1961475D01*
X1752500Y1969290D02*
X1783253D01*
X1724162Y1952912D02*
X1729125Y1957875D01*
X1752500Y1968960D02*
Y1969290D01*
X1741415Y1957875D02*
X1752500Y1968960D01*
X1729125Y1957875D02*
X1741415D01*
X1783253Y1969290D02*
X1783961Y1968583D01*
X1717750Y1952912D02*
X1724162D01*
X1706946Y1963716D02*
X1717750Y1952912D01*
X1745502Y1949750D02*
X1757002Y1961250D01*
X1701441Y1958059D02*
X1713500Y1946000D01*
X1763212Y1961250D02*
X1769964Y1954498D01*
X1757002Y1961250D02*
X1763212D01*
X1733000Y1949750D02*
X1745502D01*
X1729250Y1946000D02*
X1733000Y1949750D01*
X1713500Y1946000D02*
X1729250D01*
X1701289Y1958059D02*
X1701441D01*
X1705750Y1930971D02*
X1732469D01*
X1689975Y1946745D02*
X1705750Y1930971D01*
X1732469D02*
X1739409Y1924031D01*
X1695848Y1952402D02*
X1709750Y1938500D01*
X1751962Y1941250D02*
X1754464Y1938748D01*
X1735250Y1941250D02*
X1751962D01*
X1732500Y1938500D02*
X1735250Y1941250D01*
X1709750Y1938500D02*
X1732500D01*
X1695632Y1952402D02*
X1695848D01*
X1712344Y1921750D02*
X1724736Y1909358D01*
X1703657Y1921750D02*
X1712344D01*
X1684319Y1941088D02*
X1703657Y1921750D01*
X1694750Y1910353D02*
X1710240Y1894863D01*
X1694750Y1910353D02*
Y1919343D01*
X1678662Y1935432D02*
X1694750Y1919343D01*
X1685290Y1889761D02*
X1695214Y1879837D01*
X1685290Y1889761D02*
Y1916960D01*
X1673005Y1929245D02*
X1685290Y1916960D01*
X1673005Y1929245D02*
Y1929775D01*
X1677250Y1861500D02*
Y1902902D01*
X1661691Y1918461D02*
X1677250Y1902902D01*
X1669500Y1871000D02*
Y1899338D01*
X1656034Y1912804D02*
X1669500Y1899338D01*
X1661500Y1881750D02*
Y1896025D01*
X1650377Y1907147D02*
X1661500Y1896025D01*
X1651500Y1886750D02*
Y1894711D01*
X1644721Y1901490D02*
X1651500Y1894711D01*
X1634333Y1895833D02*
X1639064D01*
X1584539Y1875250D02*
X1610780Y1901490D01*
X1585725Y1887750D02*
X1605123Y1907147D01*
X1718260Y2008971D02*
X1719731D01*
X1667348Y2059882D02*
X1667382D01*
X1685090Y2143008D02*
X1726333Y2184250D01*
X1780186Y2153314D02*
X1782314D01*
X1701289Y2025941D02*
X1781598Y2106250D01*
X1964250Y1982000D02*
Y2076750D01*
X1934750Y2106250D02*
X1964250Y2076750D01*
X1940000Y2116250D02*
X1982500Y2073750D01*
Y2016000D02*
Y2073750D01*
X1981750Y2015250D02*
X1982500Y2016000D01*
X1447921Y2117829D02*
X1504750Y2061000D01*
Y2052775D02*
Y2061000D01*
X1504303Y2116460D02*
X1531574D01*
X1582587Y2065447D01*
X1516500Y2052338D02*
X1548554Y2020284D01*
X1516500Y2052338D02*
Y2071500D01*
X1554211Y2025941D02*
Y2025998D01*
X1532500Y2047709D02*
X1554211Y2025998D01*
X1544529Y2058250D02*
X1565525Y2037255D01*
X1537240Y1975029D02*
X1552500Y1990289D01*
X1573211D01*
X1593809Y1918461D02*
X1612875Y1937527D01*
Y1950625D01*
X1573211Y1990289D02*
X1612875Y1950625D01*
X1599466Y1912804D02*
X1626250Y1939588D01*
X1661691Y2065539D02*
X1661691D01*
X1626250Y2030098D02*
X1661691Y2065539D01*
X1575748Y1900400D02*
X1593809Y1918461D01*
X1517600Y1900400D02*
X1575748D01*
X1573284Y1909250D02*
X1588152Y1924118D01*
X1531000Y1909250D02*
X1573284D01*
X1497400Y1900400D02*
Y1901900D01*
X1478812Y1900400D02*
X1497400D01*
X1473748Y1905464D02*
X1478812Y1900400D01*
X1531584Y1980686D02*
X1553250Y2002353D01*
X1625603D01*
X1626250Y2003000D01*
Y1939588D02*
Y2003000D01*
Y2030098D01*
X1527961Y1965750D02*
X1537240Y1975029D01*
X1498814Y2013456D02*
X1531584Y1980686D01*
X1498814Y2013456D02*
Y2016686D01*
X1473686Y2039314D02*
X1476186D01*
Y2012064D02*
Y2039314D01*
X1522500Y1965750D02*
X1527961D01*
X1529775Y1956250D02*
X1542897Y1969373D01*
X1507250Y1956250D02*
X1529775D01*
X1497400Y1901900D02*
X1508750Y1913250D01*
X1527000D02*
X1531000Y1909250D01*
X1508750Y1913250D02*
X1527000D01*
X1489314Y1974186D02*
X1507250Y1956250D01*
X1517419Y1940331D02*
X1525169D01*
X1514905Y1942845D02*
X1517419Y1940331D01*
X1513074Y1942845D02*
X1514905D01*
X1525169Y1940331D02*
X1548554Y1963716D01*
X1524902Y1928750D02*
X1554211Y1958059D01*
X1498750Y1928750D02*
X1524902D01*
X1492750Y1934750D02*
X1498750Y1928750D01*
X1481500Y2006750D02*
X1522500Y1965750D01*
X1476186Y2012064D02*
X1479061Y2009189D01*
X1547225Y2134750D02*
X1605123Y2076853D01*
X1491823Y2106853D02*
X1515353D01*
X1544566Y2174750D02*
X1566066Y2153250D01*
X1504500Y2088750D02*
X1519500D01*
X1532500Y2075750D01*
Y2047709D02*
Y2075750D01*
X1515353Y2106853D02*
X1544529Y2077676D01*
Y2058250D02*
Y2077676D01*
X1469092Y2182342D02*
X1476684Y2174750D01*
X1544566D01*
X1466257Y2149257D02*
X1471507D01*
X1504303Y2116460D01*
X1451132Y2164382D02*
X1466257Y2149257D01*
X1433171Y2145500D02*
X1447921Y2130750D01*
X1433171Y2145500D02*
Y2146421D01*
X1447921Y2117829D02*
Y2130750D01*
X1424711Y2118961D02*
X1432460D01*
X1415211Y2128461D02*
X1424711Y2118961D01*
X1409125Y2098625D02*
X1414375D01*
X1397250Y2110500D02*
X1409125Y2098625D01*
X1414375D02*
X1473686Y2039314D01*
X1964250Y1982000D02*
X1995250Y1951000D01*
X1646785Y2108535D02*
X1651316Y2104004D01*
Y2089105D02*
Y2104004D01*
X1778971Y2126250D02*
X1951250D01*
X1780284Y2116250D02*
X1940000D01*
X1695632Y2031598D02*
X1780284Y2116250D01*
X1781598Y2106250D02*
X1934750D01*
X1718260Y2008971D02*
X1744644Y2035355D01*
X1656034Y2071196D02*
X1670544Y2085706D01*
Y2119921D01*
X1637500Y2153250D02*
X1663460Y2127290D01*
Y2127005D02*
X1670544Y2119921D01*
X1663460Y2127005D02*
Y2127290D01*
X1692000Y2084500D02*
Y2128750D01*
X1685090Y2135660D02*
X1692000Y2128750D01*
X1685090Y2135660D02*
Y2143008D01*
X1667382Y2059882D02*
X1692000Y2084500D01*
X1726333Y2184250D02*
X1749250D01*
X1780186Y2153314D01*
D57*
X585750Y1140930D02*
X669000D01*
X669000Y1049750D02*
Y1140930D01*
X669000Y1140930D02*
X669000Y1140930D01*
X1890000Y1110750D02*
X1914750Y1086000D01*
X1910000Y1159500D02*
Y1163800D01*
X1890000Y1139500D02*
X1910000Y1159500D01*
X1379000Y2128750D02*
Y2134500D01*
Y2128750D02*
X1397250Y2110500D01*
X1750000Y1141250D02*
Y1164200D01*
X842750Y1142180D02*
Y1160000D01*
X910000Y1142680D02*
Y1166050D01*
X482000Y1145000D02*
Y1164200D01*
X479500Y1007250D02*
X637250D01*
X669000Y1039000D01*
Y1049750D01*
X479500Y898750D02*
Y929250D01*
X479000Y898250D02*
X479500Y898750D01*
X153500Y1000500D02*
X154000Y1001000D01*
X288747Y1092000D02*
X301750Y1078997D01*
X259250Y1092000D02*
X281840D01*
X288747D01*
X155000D02*
X259250D01*
X154000Y1091000D02*
X155000Y1092000D01*
X154000Y1001000D02*
Y1091000D01*
X155000Y1092000D02*
X155430Y1092430D01*
Y1140930D02*
X381000D01*
X585750D01*
X1730920Y1141250D02*
X1750000D01*
X1890000Y1110750D02*
Y1139500D01*
Y1141250D01*
X1914750Y1086000D02*
X1950662D01*
X2004254Y1032408D01*
X1793750Y1141250D02*
X1799276Y1135724D01*
X1793750Y1141250D02*
X1890000D01*
X1919758Y1007008D02*
X2004254D01*
X1846250Y904750D02*
Y933500D01*
Y904750D02*
X1856420Y894580D01*
X1885500D01*
X1949750D02*
X1995830D01*
X1950662Y1086000D02*
X2012500D01*
X1750000Y1141250D02*
X1793750D01*
X1105930Y1140930D02*
X1130500Y1165500D01*
X1153000Y1054250D02*
Y1164500D01*
Y1054250D02*
X1154000Y1053250D01*
X1300250Y1058750D02*
X1308750Y1067250D01*
X1127750Y1027000D02*
X1154000Y1053250D01*
X1127750Y926490D02*
X1161680Y892560D01*
X1361430D02*
X1362430Y891560D01*
X1489430D02*
Y892370D01*
X1732870D02*
X1836250Y995750D01*
Y1026250D01*
X1806250Y1056250D02*
X1836250Y1026250D01*
X1799276Y1056250D02*
X1806250D01*
X1799276Y1032408D02*
Y1056250D01*
Y1135724D01*
X1127750Y926490D02*
Y945500D01*
Y1027000D01*
X1308750Y1067250D02*
Y1150762D01*
X1152000Y1165500D02*
X1153000Y1164500D01*
X1283762Y1175750D02*
X1308750Y1150762D01*
X1163250Y1165500D02*
X1173500Y1175750D01*
X1130500Y1165500D02*
X1152000D01*
X1163250D01*
X1173500Y1175750D02*
X1283762D01*
X1414500Y2488500D02*
X1415000Y2489000D01*
X1951250D02*
X1951750Y2488500D01*
X1415000Y2489000D02*
X1951250D01*
X150000Y2490000D02*
X1413000D01*
X2024294Y923044D02*
Y1074206D01*
X1995830Y894580D02*
X2024294Y923044D01*
X2012500Y1086000D02*
X2024294Y1074206D01*
X1846250Y933500D02*
X1919758Y1007008D01*
X1413000Y2490000D02*
X1414500Y2488500D01*
X1657000Y1067330D02*
X1726085Y1136415D01*
X1489430Y892370D02*
X1732870D01*
X669000Y1140930D02*
X1105930D01*
X1161680Y892560D02*
X1361430D01*
X1362430Y891560D02*
X1489430D01*
X155430Y1092430D02*
Y1140930D01*
D58*
X718250Y2529250D02*
D03*
X252750D02*
D03*
X479000Y898250D02*
D03*
Y868253D02*
D03*
X302500Y981250D02*
D03*
Y1011247D02*
D03*
X301750Y1078997D02*
D03*
Y1049000D02*
D03*
X1768750Y1373750D02*
D03*
X1798747Y1373750D02*
D03*
X567997Y1372500D02*
D03*
X538000Y1372500D02*
D03*
X842750Y1160000D02*
D03*
X812753Y1160000D02*
D03*
X1702438Y2139062D02*
D03*
X1736944Y2104556D02*
D03*
X1822000Y2183500D02*
D03*
Y2153501D02*
D03*
X241000Y923250D02*
D03*
X271000Y923250D02*
D03*
D59*
X1013250Y2578750D02*
D03*
X993250Y908750D02*
D03*
X213250Y1348750D02*
D03*
X1823250Y868750D02*
D03*
X2023250Y2568750D02*
D03*
X153250Y2578750D02*
D03*
X1401500Y1073500D02*
D03*
Y1098900D02*
D03*
X1091990Y945810D02*
D03*
Y971220D02*
D03*
X1092120Y996590D02*
D03*
X1092250Y1022000D02*
D03*
Y1047500D02*
D03*
X1938250Y1375500D02*
D03*
Y1297500D02*
D03*
X1906750Y1347750D02*
D03*
X1907000Y1370750D02*
D03*
Y1324750D02*
D03*
X1489430Y891560D02*
D03*
X1362430D02*
D03*
Y942360D02*
D03*
X1489430D02*
D03*
X1288680Y891560D02*
D03*
X1161680D02*
D03*
Y942360D02*
D03*
X1288680D02*
D03*
X1799250Y1007000D02*
D03*
X1799276Y1032408D02*
D03*
X2004254D02*
D03*
Y1007008D02*
D03*
X479500Y1007250D02*
D03*
Y929250D02*
D03*
X153500Y1000500D02*
D03*
X154000Y1102500D02*
D03*
X259250Y1092000D02*
D03*
X259500Y1011000D02*
D03*
X260000Y1051500D02*
D03*
X1533150Y1085750D02*
D03*
X1507750D02*
D03*
X1469092Y2182342D02*
D03*
D60*
X428250Y1048500D02*
D03*
X405710D02*
D03*
D61*
X1473700Y1081500D02*
D03*
X1461000Y1061500D02*
D03*
X1448300Y1081500D02*
D03*
X1330050Y1092750D02*
D03*
X1342750Y1072750D02*
D03*
X1355450Y1092750D02*
D03*
X1204550Y1083250D02*
D03*
X1217250Y1063250D02*
D03*
X1229950Y1083250D02*
D03*
D62*
X1389600Y1152479D02*
D03*
D63*
X1389600Y1177879D02*
D03*
Y1203279D02*
D03*
X1389600Y1228679D02*
D03*
X1415000Y1152479D02*
D03*
Y1177879D02*
D03*
X1415000Y1203279D02*
D03*
Y1228679D02*
D03*
D64*
X1879001Y1250750D02*
D03*
X1890000D02*
D03*
D65*
X1972500Y1346450D02*
D03*
X1992500Y1333750D02*
D03*
X1972500Y1321050D02*
D03*
D66*
X696000Y1139750D02*
D03*
Y1162290D02*
D03*
D67*
X1986200Y1163800D02*
D03*
Y1189200D02*
D03*
Y1214600D02*
D03*
Y1240000D02*
D03*
X1910000Y1163800D02*
D03*
Y1189200D02*
D03*
Y1214600D02*
D03*
X444950Y869300D02*
D03*
Y894700D02*
D03*
Y920100D02*
D03*
Y945500D02*
D03*
X368750Y869300D02*
D03*
X368750Y894700D02*
D03*
X368750Y920100D02*
D03*
D68*
X1910000Y1240000D02*
D03*
X368750Y945500D02*
D03*
D69*
X669000Y1049750D02*
D03*
X588500Y1049750D02*
D03*
D70*
X1949750Y894580D02*
D03*
D71*
X1885500D02*
D03*
D72*
X1913750Y940830D02*
D03*
D73*
X558200Y1164200D02*
D03*
Y1189600D02*
D03*
Y1215000D02*
D03*
Y1240400D02*
D03*
Y1265800D02*
D03*
Y1291200D02*
D03*
Y1316600D02*
D03*
Y1342000D02*
D03*
X482000Y1164200D02*
D03*
Y1189600D02*
D03*
Y1215000D02*
D03*
Y1240400D02*
D03*
Y1265800D02*
D03*
Y1291200D02*
D03*
Y1316600D02*
D03*
X785050Y1370050D02*
D03*
Y1344650D02*
D03*
Y1319250D02*
D03*
Y1293850D02*
D03*
Y1268450D02*
D03*
Y1243050D02*
D03*
Y1217650D02*
D03*
Y1192250D02*
D03*
X861250Y1370050D02*
D03*
Y1344650D02*
D03*
Y1319250D02*
D03*
Y1293850D02*
D03*
Y1268450D02*
D03*
Y1243050D02*
D03*
Y1217650D02*
D03*
X1826200Y1164200D02*
D03*
Y1189600D02*
D03*
Y1215000D02*
D03*
Y1240400D02*
D03*
Y1265800D02*
D03*
Y1291200D02*
D03*
Y1316600D02*
D03*
Y1342000D02*
D03*
X1750000Y1164200D02*
D03*
Y1189600D02*
D03*
Y1215000D02*
D03*
Y1240400D02*
D03*
Y1265800D02*
D03*
Y1291200D02*
D03*
Y1316600D02*
D03*
X712250Y2215000D02*
D03*
Y2240500D02*
D03*
Y2266000D02*
D03*
X712000Y2291250D02*
D03*
Y2316750D02*
D03*
Y2342250D02*
D03*
X712250Y2367500D02*
D03*
Y2393000D02*
D03*
X255000Y2214450D02*
D03*
Y2239850D02*
D03*
Y2265250D02*
D03*
Y2290650D02*
D03*
Y2316050D02*
D03*
Y2341450D02*
D03*
Y2366850D02*
D03*
X1315000Y2215000D02*
D03*
Y2240500D02*
D03*
Y2266000D02*
D03*
X1314750Y2291250D02*
D03*
Y2316750D02*
D03*
Y2342250D02*
D03*
X1315000Y2367500D02*
D03*
Y2393000D02*
D03*
X857750Y2214450D02*
D03*
Y2239850D02*
D03*
Y2265250D02*
D03*
Y2290650D02*
D03*
Y2316050D02*
D03*
Y2341450D02*
D03*
Y2366850D02*
D03*
X1917500Y2215000D02*
D03*
Y2240500D02*
D03*
Y2266000D02*
D03*
X1917250Y2291250D02*
D03*
Y2316750D02*
D03*
Y2342250D02*
D03*
X1917500Y2367500D02*
D03*
Y2393000D02*
D03*
X1460250Y2214450D02*
D03*
Y2239850D02*
D03*
Y2265250D02*
D03*
Y2290650D02*
D03*
Y2316050D02*
D03*
Y2341450D02*
D03*
Y2366850D02*
D03*
X712000Y1611500D02*
D03*
Y1637000D02*
D03*
Y1662500D02*
D03*
X711750Y1687750D02*
D03*
Y1713250D02*
D03*
Y1738750D02*
D03*
X712000Y1764000D02*
D03*
Y1789500D02*
D03*
X254750Y1610950D02*
D03*
Y1636350D02*
D03*
Y1661750D02*
D03*
Y1687150D02*
D03*
Y1712550D02*
D03*
Y1737950D02*
D03*
Y1763350D02*
D03*
X1315000Y1611500D02*
D03*
Y1637000D02*
D03*
Y1662500D02*
D03*
X1314750Y1687750D02*
D03*
Y1713250D02*
D03*
Y1738750D02*
D03*
X1315000Y1764000D02*
D03*
Y1789500D02*
D03*
X857750Y1610950D02*
D03*
Y1636350D02*
D03*
Y1661750D02*
D03*
Y1687150D02*
D03*
Y1712550D02*
D03*
Y1737950D02*
D03*
Y1763350D02*
D03*
X1918000Y1611500D02*
D03*
Y1637000D02*
D03*
Y1662500D02*
D03*
X1917750Y1687750D02*
D03*
Y1713250D02*
D03*
Y1738750D02*
D03*
X1918000Y1764000D02*
D03*
Y1789500D02*
D03*
X1460750Y1610950D02*
D03*
Y1636350D02*
D03*
Y1661750D02*
D03*
Y1687150D02*
D03*
Y1712550D02*
D03*
Y1737950D02*
D03*
Y1763350D02*
D03*
D74*
X482000Y1342000D02*
D03*
X861250Y1192250D02*
D03*
X1750000Y1342000D02*
D03*
X255000Y2392250D02*
D03*
X857750D02*
D03*
X1460250D02*
D03*
X254750Y1788750D02*
D03*
X857750D02*
D03*
X1460750D02*
D03*
D75*
X360300Y1370200D02*
D03*
Y1344800D02*
D03*
Y1319400D02*
D03*
Y1294000D02*
D03*
Y1268600D02*
D03*
Y1243200D02*
D03*
Y1217800D02*
D03*
Y1192400D02*
D03*
Y1167000D02*
D03*
X436500Y1370200D02*
D03*
Y1344800D02*
D03*
Y1319400D02*
D03*
Y1294000D02*
D03*
Y1268600D02*
D03*
Y1243200D02*
D03*
Y1217800D02*
D03*
Y1192400D02*
D03*
X986200Y1166050D02*
D03*
Y1191450D02*
D03*
Y1216850D02*
D03*
Y1242250D02*
D03*
Y1267650D02*
D03*
Y1293050D02*
D03*
Y1318450D02*
D03*
Y1343850D02*
D03*
Y1369250D02*
D03*
X910000Y1166050D02*
D03*
Y1191450D02*
D03*
Y1216850D02*
D03*
Y1242250D02*
D03*
Y1267650D02*
D03*
Y1293050D02*
D03*
Y1318450D02*
D03*
Y1343850D02*
D03*
X1624050Y1370200D02*
D03*
Y1344800D02*
D03*
Y1319400D02*
D03*
Y1294000D02*
D03*
Y1268600D02*
D03*
Y1243200D02*
D03*
Y1217800D02*
D03*
Y1192400D02*
D03*
Y1167000D02*
D03*
X1700250Y1370200D02*
D03*
Y1344800D02*
D03*
Y1319400D02*
D03*
Y1294000D02*
D03*
Y1268600D02*
D03*
Y1243200D02*
D03*
Y1217800D02*
D03*
Y1192400D02*
D03*
D76*
X436500Y1167000D02*
D03*
X910000Y1369250D02*
D03*
X1700250Y1167000D02*
D03*
D77*
X1657000Y1067330D02*
D03*
X1657000Y867330D02*
D03*
D78*
X1646785Y2108535D02*
D03*
X1654562Y2116312D02*
D03*
D79*
X1487053Y2200303D02*
D03*
X1433171Y2146421D02*
D03*
X1415211Y2128461D02*
D03*
X1451132Y2164382D02*
D03*
D80*
X1397250Y2110500D02*
D03*
D81*
X1876500Y1612000D02*
D03*
X512000Y1390750D02*
D03*
X1532500Y1126500D02*
D03*
X1648500Y1294000D02*
D03*
X1671250Y1319000D02*
D03*
X1325790Y1479960D02*
D03*
X1613000Y1581250D02*
D03*
X2030500Y1604250D02*
D03*
X1500823Y1354816D02*
D03*
X1513500Y1373000D02*
D03*
X1515164Y1236664D02*
D03*
X1985750Y1260500D02*
D03*
X1985000Y1497000D02*
D03*
X1507500Y2139500D02*
D03*
X1532250Y2134750D02*
D03*
X1379000Y2134500D02*
D03*
X422000Y2263000D02*
D03*
X323750Y2263500D02*
D03*
X1734250Y1835250D02*
D03*
X1689582Y1787587D02*
D03*
X1758836Y1777337D02*
D03*
X1760250Y1837750D02*
D03*
X1780500Y1648750D02*
D03*
X1780000Y1855250D02*
D03*
X1799750Y1808750D02*
D03*
X1799000Y1881000D02*
D03*
X1820000Y1901500D02*
D03*
X1840500Y1688000D02*
D03*
X1840000Y1923250D02*
D03*
X1858000Y1737750D02*
D03*
X1857500Y1944250D02*
D03*
X1876500Y1972250D02*
D03*
X1951250Y2126250D02*
D03*
X1702000Y2391000D02*
D03*
X1648500Y2264250D02*
D03*
X1616500Y2315750D02*
D03*
X1587500Y2341750D02*
D03*
X1551500Y2239000D02*
D03*
X1532000Y2264250D02*
D03*
X1144750Y2391250D02*
D03*
X1108250Y2265750D02*
D03*
X1074250Y2263750D02*
D03*
X1037750Y2340500D02*
D03*
X1057500Y2239500D02*
D03*
X1016000Y2315250D02*
D03*
X939000Y2315500D02*
D03*
X202000Y2319250D02*
D03*
X216750Y2342250D02*
D03*
X285250Y2316500D02*
D03*
X401750Y2368250D02*
D03*
X382500Y2392000D02*
D03*
X200000Y1702750D02*
D03*
X218500Y1738250D02*
D03*
X264500Y1192500D02*
D03*
X286500Y1711500D02*
D03*
X285750Y1220500D02*
D03*
X302000Y1244000D02*
D03*
X324750Y1660000D02*
D03*
X324250Y1269750D02*
D03*
X401750Y1294750D02*
D03*
X391500Y1319500D02*
D03*
X422000Y1660750D02*
D03*
X401250Y1763250D02*
D03*
X383750Y1789000D02*
D03*
X385000Y1344750D02*
D03*
X1144750Y1788750D02*
D03*
X1130000Y1216750D02*
D03*
X1077250Y1267250D02*
D03*
X1107250Y1661000D02*
D03*
X1093750Y1241500D02*
D03*
X1036750Y1737250D02*
D03*
X1037850Y1343850D02*
D03*
X1017250Y1369250D02*
D03*
X940250Y1318250D02*
D03*
X1579577Y1192558D02*
D03*
X723750Y1400750D02*
D03*
X1781000Y1292250D02*
D03*
X811000Y1370500D02*
D03*
X811450Y1268450D02*
D03*
X810500Y1183000D02*
D03*
X622000Y1292000D02*
D03*
Y1240000D02*
D03*
X604500Y1215750D02*
D03*
X605500Y1316500D02*
D03*
X586250Y1266000D02*
D03*
X585750Y1140930D02*
D03*
X723750Y1191750D02*
D03*
X1859750Y1190750D02*
D03*
Y1341000D02*
D03*
X1675000Y1345250D02*
D03*
X1668000Y1762250D02*
D03*
X1531750Y1662250D02*
D03*
X1531500Y1268250D02*
D03*
X1547300Y1637050D02*
D03*
Y1243200D02*
D03*
X1563750Y1217500D02*
D03*
X1580250Y1737250D02*
D03*
X1379500Y1249500D02*
D03*
X1446750Y1202250D02*
D03*
X1276250Y1966750D02*
D03*
X1258000Y1942250D02*
D03*
X1255000Y2341500D02*
D03*
X1239250Y1924500D02*
D03*
X1217500Y1900250D02*
D03*
X1219309Y2276111D02*
D03*
X1197750Y1881750D02*
D03*
X1198250Y2420500D02*
D03*
X1177500Y1861750D02*
D03*
Y2227560D02*
D03*
X1160250Y1838250D02*
D03*
X1097000Y2367000D02*
D03*
X1369250Y2292250D02*
D03*
X1296250Y1818630D02*
D03*
X1568000Y2314250D02*
D03*
X1128500Y2358750D02*
D03*
X304000Y2247750D02*
D03*
X1236500Y2192000D02*
D03*
X1346250Y2214000D02*
D03*
X1563500Y1722500D02*
D03*
X303250Y1643250D02*
D03*
X941000Y1720000D02*
D03*
X1014500Y1717750D02*
D03*
X1734750Y1676500D02*
D03*
X1594750Y1720250D02*
D03*
X1819250Y1600750D02*
D03*
X1790750Y1215000D02*
D03*
X1845250Y1230500D02*
D03*
X1461333Y1152396D02*
D03*
X1981750Y2015250D02*
D03*
X1516500Y2071500D02*
D03*
X1504500Y2088750D02*
D03*
X1416750Y1428000D02*
D03*
X1513074Y1942845D02*
D03*
X1492750Y1934750D02*
D03*
X1491823Y2106853D02*
D03*
X1486500Y2159000D02*
D03*
X1863250Y1408250D02*
D03*
X1995250Y1951000D02*
D03*
X1912250Y2032250D02*
D03*
X1900500Y2168250D02*
D03*
X1932500Y2197000D02*
D03*
X1631000Y2130750D02*
D03*
X1662750Y2451500D02*
D03*
X171000Y2452250D02*
D03*
X240750Y1168000D02*
D03*
X190500Y1117500D02*
D03*
X616000Y1029250D02*
D03*
X642250Y1400000D02*
D03*
X640790Y1162290D02*
D03*
X1856000Y1166750D02*
D03*
X1723750Y868250D02*
D03*
X1145250Y1191750D02*
D03*
X1526750Y1202250D02*
D03*
X1448250Y1410500D02*
D03*
Y1286250D02*
D03*
X1312500D02*
D03*
X1499750Y1182750D02*
D03*
X1311500Y1456000D02*
D03*
X1332500Y1541250D02*
D03*
X1364000Y1509750D02*
D03*
X1289250Y1437500D02*
D03*
X1264500Y1114000D02*
D03*
X1725250Y1137250D02*
D03*
X1726000Y1371000D02*
D03*
X1460000Y1005000D02*
D03*
X1459000Y890750D02*
D03*
X1053500Y971750D02*
D03*
X1097554Y1401818D02*
D03*
X1282500Y1151500D02*
D03*
X1404250Y941750D02*
D03*
X155430Y1140930D02*
D03*
X1672000Y2370000D02*
D03*
X1415000Y2489000D02*
D03*
X1897000Y2062250D02*
D03*
X1793250Y2077750D02*
D03*
X1794250Y2467000D02*
D03*
X517250Y1290500D02*
D03*
X1951250Y2153314D02*
D03*
X1951750Y2488500D02*
D03*
X150000Y2490000D02*
D03*
X447250Y2468250D02*
D03*
X1180000Y943250D02*
D03*
X1121250Y1073000D02*
D03*
X1306500Y1307250D02*
D03*
X1326000Y1339750D02*
D03*
X1134000Y1128500D02*
D03*
X1742500Y1387750D02*
D03*
X1880250Y968000D02*
D03*
X1073750Y1660000D02*
D03*
X1114250Y1311750D02*
D03*
X1114000Y1373250D02*
D03*
X1043500Y1293000D02*
D03*
X1057000Y1641250D02*
D03*
X1043000Y1010750D02*
D03*
X1172500Y1339750D02*
D03*
X1159540Y1316710D02*
D03*
X1647750Y1662750D02*
D03*
X1484500Y1323250D02*
D03*
X1479500Y1035250D02*
D03*
X1514000Y1514500D02*
D03*
X1433250Y1465500D02*
D03*
X1457250Y1482000D02*
D03*
X1483750Y1447000D02*
D03*
X2014000Y1490500D02*
D03*
X2012250Y1902000D02*
D03*
X2003250Y1513000D02*
D03*
X1595250Y1169000D02*
D03*
X1130000Y1758000D02*
D03*
D82*
X1466686Y1996814D02*
D03*
X1489314Y1974186D02*
D03*
X1476186Y2039314D02*
D03*
X1498814Y2016686D02*
D03*
D83*
X1365500Y1157500D02*
D03*
Y1177700D02*
D03*
X1499150Y1145900D02*
D03*
Y1166100D02*
D03*
X1361650Y1208900D02*
D03*
Y1229100D02*
D03*
X337350Y1044850D02*
D03*
Y1024650D02*
D03*
X1941850Y1113400D02*
D03*
Y1133600D02*
D03*
X1976600Y1113650D02*
D03*
Y1133850D02*
D03*
X2014600Y1114650D02*
D03*
Y1134850D02*
D03*
X1475650Y1107900D02*
D03*
Y1128100D02*
D03*
X337850Y1093600D02*
D03*
Y1073400D02*
D03*
X1461150Y1021400D02*
D03*
Y1041600D02*
D03*
D84*
X1473748Y1905464D02*
D03*
X1459464Y1919748D02*
D03*
X1798244Y1954299D02*
D03*
X1783961Y1968583D02*
D03*
X1768748Y1924464D02*
D03*
X1754464Y1938748D02*
D03*
X1784248Y1940214D02*
D03*
X1769964Y1954498D02*
D03*
X1753692Y1909747D02*
D03*
X1739409Y1924031D02*
D03*
X1739020Y1895075D02*
D03*
X1724736Y1909358D02*
D03*
X1724524Y1880579D02*
D03*
X1710240Y1894863D02*
D03*
X1709498Y1865553D02*
D03*
X1695214Y1879837D02*
D03*
X1812248Y1968964D02*
D03*
X1797964Y1983248D02*
D03*
D85*
X1517600Y1900400D02*
D03*
X1497400D02*
D03*
X1974150Y1285350D02*
D03*
X1994350D02*
D03*
X1968150Y1380600D02*
D03*
X1988350D02*
D03*
X1170150Y1028350D02*
D03*
X1190350D02*
D03*
X1209650Y1029100D02*
D03*
X1229850D02*
D03*
X1260650Y1084850D02*
D03*
X1280850D02*
D03*
X1314150Y1029600D02*
D03*
X1334350D02*
D03*
X1441100Y1031400D02*
D03*
X1420900D02*
D03*
X369650Y976850D02*
D03*
X389850D02*
D03*
X323300Y976250D02*
D03*
X343500D02*
D03*
X1393150Y1251350D02*
D03*
X1413350Y1251350D02*
D03*
X1333496Y1964594D02*
D03*
X1353696D02*
D03*
X1333496Y1943081D02*
D03*
X1353696D02*
D03*
X1333496Y1922045D02*
D03*
X1353696D02*
D03*
X1333496Y1901008D02*
D03*
X1353696D02*
D03*
X1333496Y1881032D02*
D03*
X1353696D02*
D03*
X1333496Y1860600D02*
D03*
X1353696D02*
D03*
X1333496Y1839313D02*
D03*
X1353696D02*
D03*
X1333496Y1818630D02*
D03*
X1353696D02*
D03*
X1456150Y1176600D02*
D03*
X1476350D02*
D03*
X1361150Y1030850D02*
D03*
X1381350D02*
D03*
D86*
X1297000Y1055500D02*
D03*
X1329000Y1055500D02*
D03*
X1154000Y1053250D02*
D03*
X1186000Y1053250D02*
D03*
D87*
X1531584Y1980686D02*
D03*
X1537240Y1975029D02*
D03*
X1542897Y1969373D02*
D03*
X1548554Y1963716D02*
D03*
X1554211Y1958059D02*
D03*
X1559868Y1952402D02*
D03*
X1565525Y1946745D02*
D03*
X1571181Y1941088D02*
D03*
X1576838Y1935432D02*
D03*
X1582495Y1929775D02*
D03*
X1588152Y1924118D02*
D03*
X1593809Y1918461D02*
D03*
X1599466Y1912804D02*
D03*
X1605123Y1907147D02*
D03*
X1610780Y1901490D02*
D03*
X1616436Y1895833D02*
D03*
X1723917Y2003314D02*
D03*
X1718260Y2008971D02*
D03*
X1712603Y2014627D02*
D03*
X1706946Y2020284D02*
D03*
X1701289Y2025941D02*
D03*
X1695632Y2031598D02*
D03*
X1689975Y2037255D02*
D03*
X1684319Y2042912D02*
D03*
X1678662Y2048569D02*
D03*
X1673005Y2054225D02*
D03*
X1667348Y2059882D02*
D03*
X1661691Y2065539D02*
D03*
X1656034Y2071196D02*
D03*
X1650377Y2076853D02*
D03*
X1644721Y2082510D02*
D03*
X1639064Y2088167D02*
D03*
D88*
Y1895833D02*
D03*
X1644721Y1901490D02*
D03*
X1650377Y1907147D02*
D03*
X1656034Y1912804D02*
D03*
X1661691Y1918461D02*
D03*
X1667348Y1924118D02*
D03*
X1673005Y1929775D02*
D03*
X1678662Y1935432D02*
D03*
X1684319Y1941088D02*
D03*
X1689975Y1946745D02*
D03*
X1695632Y1952402D02*
D03*
X1701289Y1958059D02*
D03*
X1706946Y1963716D02*
D03*
X1712603Y1969373D02*
D03*
X1718260Y1975029D02*
D03*
X1723916Y1980686D02*
D03*
X1616436Y2088167D02*
D03*
X1610780Y2082510D02*
D03*
X1605123Y2076853D02*
D03*
X1599466Y2071196D02*
D03*
X1593809Y2065539D02*
D03*
X1588152Y2059882D02*
D03*
X1582495Y2054225D02*
D03*
X1576838Y2048569D02*
D03*
X1571181Y2042912D02*
D03*
X1565525Y2037255D02*
D03*
X1559868Y2031598D02*
D03*
X1554211Y2025941D02*
D03*
X1548554Y2020284D02*
D03*
X1542897Y2014627D02*
D03*
X1537240Y2008971D02*
D03*
X1531584Y2003314D02*
D03*
D89*
X1747314Y2182314D02*
D03*
X1724686Y2159686D02*
D03*
X1774564Y2152314D02*
D03*
X1751936Y2129686D02*
D03*
D90*
X1498500Y1020000D02*
D03*
X1498500Y1052000D02*
D03*
D91*
X1466686Y1996814D02*
X1479061Y2009189D01*
D92*
X1821625Y2152875D02*
D03*
D93*
X1821500Y2183250D02*
D03*
M02*
