M48
;Layer_Color=9474304
;FILE_FORMAT=4:4
METRIC,LZ
;TYPE=PLATED
T1F00S00C0.5000
T2F00S00C0.6000
T3F00S00C0.6350
T4F00S00C0.7000
T5F00S00C0.7620
T6F00S00C0.8000
T7F00S00C0.8890
T8F00S00C0.9000
T10F00S00C1.0000
T11F00S00C1.2000
%
T01
X0099325Y0090875
X0182325Y0086875
X01879001Y0125075
X0189
X0021325Y0134875
X01646785Y02108535
X01654562Y02116312
X0015325Y0257875
X0101325
X0202325Y0256875
T02
X00482Y011642
Y011896
X005582
Y011642
X0175Y011642
Y011896
X018262
Y011642
Y01215
Y012404
Y012658
Y012912
Y013166
Y01342
X0175
Y013166
Y012912
Y012658
Y012404
Y01215
X0086125Y0121765
Y0119225
Y0124305
Y0126845
Y0129385
Y0131925
Y0134465
Y0137005
X0078505Y0137005
Y0134465
Y0131925
Y0129385
Y0126845
Y0124305
Y0121765
Y0119225
X005582Y01215
Y012404
Y012658
Y012912
Y013166
Y01342
X00482
Y013166
Y012912
Y012658
Y012404
Y01215
T03
X0036875Y008693
X0036875Y008947
X0036875Y009201
Y009455
X0044495
Y009201
Y008947
Y008693
X0191Y011638
Y011892
X019862
Y011638
Y012146
Y0124
X0191
Y012146
T04
X004795Y0092925
Y0100725
X0193825Y012975
Y013755
T05
X00241Y0092325
X00271Y0092325
X003025Y0098125
Y01011247
X0030175Y01049
Y01078997
X0025925Y01092
X0026Y010515
X002595Y01011
X003603Y01167
X004365
X00479Y0089825
Y00868253
X00812753Y0116
X0084275Y0116
X0091Y0116605
X009862
X0120455Y0108325
X0122995
X0121725Y0106325
X0134275Y0107275
X0133005Y0109275
X0135545
X014483Y010815
X014737Y010815
X01461Y010615
X0162405Y01167
X0170025
X019925Y0133375
X019725Y0134645
Y0132105
X01798747Y0137375
X0176875Y0137375
X0170025Y013702
Y013448
Y013194
Y01294
Y012686
Y012432
Y012178
Y011924
X0162405
Y012178
Y012432
Y012686
Y01294
Y013194
Y013448
Y013702
X009862Y0136925
Y0134385
Y0131845
Y0129305
Y0126765
Y0124225
Y0121685
Y0119145
X0091Y0119145
Y0121685
Y0124225
Y0126765
Y0129305
Y0131845
Y0134385
Y0136925
X00567997Y013725
X00538Y013725
X004365Y013702
Y013448
Y013194
Y01294
Y012686
Y012432
Y012178
Y011924
X003603
Y012178
Y012432
Y012686
Y01294
Y013194
Y013448
Y013702
X01702438Y02139062
X01736944Y02104556
X01822Y02153501
Y021835
X0025275Y0252925
X0071825
T06
X0015543Y0114093
X001905Y011175
X0024075Y01168
X0040571Y010485
X0042825
X00616Y0102925
X0058575Y0114093
X0064079Y0116229
X00696
Y0113975
X008105Y01183
X01134Y011285
X0112125Y01073
X01043Y0101075
X010535Y0097175
X0118Y0094325
X0140425Y0094175
X01459Y0089075
X0146Y01005
X014795Y0103525
X01461333Y01152396
X0149975Y0118275
X015325Y011265
X012825Y011515
X012645Y01114
X0159525Y01169
X0172525Y0113725
X01856Y0116675
X0188025Y00968
X0172375Y0086825
X0198575Y012605
X01985Y01497
X0200325Y01513
X02014Y014905
X0186325Y0140825
X0185975Y01341
X0184525Y012305
X0185975Y0119075
X0179075Y01215
X01781Y0129225
X01726Y01371
X017425Y0138775
X01675Y0134525
X0167125Y01319
X016485Y01294
X01613Y0158125
X01514Y015145
X0145725Y01482
X0143325Y014655
X0141675Y01428
X0144825Y014105
X0148375Y01447
X015135Y01373
X01500823Y01354816
X014845Y0132325
X0144825Y0128625
X0144675Y0120225
X0152675
X01515164Y01236664
X015473Y012432
X015315Y0126825
X0156375Y012175
X01579577Y01192558
X013795Y012495
X013125Y0128625
X013065Y0130725
X01326Y0133975
X013115Y01456
X0132579Y0147996
X01364Y0150975
X013325Y0154125
X0128925Y014375
X011725Y0133975
X0115954Y0131671
X0111425Y0131175
X01114Y0137325
X01097554Y01401818
X0101725Y0136925
X0103785Y0134385
X010435Y01293
X0107725Y0126725
X0109375Y012415
X0113Y0121675
X0114525Y0119175
X0094025Y0131825
X0081145Y0126845
X00811Y013705
X0072375Y0140075
X0064225Y014
X006055Y013165
X00622Y01292
Y0124
X006045Y0121575
X0058625Y01266
X0051725Y012905
X00512Y0139075
X0040175Y0129475
X0072375Y0119175
X002645Y011925
X0028575Y012205
X00302Y01244
X0032425Y0126975
X003915Y013195
X00385Y0134475
X0032475Y0166
X0030325Y0164325
X002865Y017115
X002185Y0173825
X002Y0170275
X0038375Y01789
X0040125Y0176325
X00422Y0166075
X00941Y0172
X010145Y0171775
X0103675Y0173725
X0113Y01758
X0114475Y0178875
X0116025Y0183825
X011775Y0186175
X0110725Y01661
X0107375Y0166
X01057Y0164125
X0119775Y0188175
X012175Y0190025
X0123925Y019245
X01258Y0194225
X0127625Y0196675
X0129625Y0181863
X0149275Y0193475
X01513074Y01942845
X015635Y017225
X0158025Y0173725
X0153175Y0166225
X015473Y0163705
X0164775Y0166275
X0173475Y016765
X017805Y0164875
X0181925Y0160075
X018765Y01612
X018405Y01688
X01858Y0173775
X0179975Y0180875
X0178Y0185525
X0176025Y0183775
X0173425Y0183525
X01758836Y01777337
X01689582Y01787587
X01668Y0176225
X0159475Y0172025
X01799Y01881
X0182Y019015
X0184Y0192325
X018575Y0194425
X018765Y0197225
X0199525Y01951
X0201225Y01902
X020305Y0160425
X0198175Y0201525
X0191225Y0203225
X01897Y0206225
X019005Y0216825
X019325Y02197
X0195125Y02153314
Y0212625
X0179325Y0207775
X01631Y0213075
X016485Y0226425
X016165Y0231575
X015875Y0234175
X01672Y0237
X01568Y0231425
X01532Y0226425
X015515Y02239
X0153225Y0213475
X015075Y021395
X014865Y02159
X01491823Y02106853
X015045Y0208875
X015165Y020715
X01379Y021345
X0134625Y02214
X0136925Y0229225
X01255Y023415
X01219309Y02276111
X012365Y02192
X011775Y0222756
X0110825Y0226575
X0107425Y0226375
X010575Y022395
X01016Y0231525
X0103775Y023405
X01097Y02367
X011285Y0235875
X00939Y023155
X00422Y02263
X0040175Y0236825
X0028525Y023165
X00202Y0231925
X0021675Y0234225
X00304Y0224775
X0032375Y022635
X003825Y02392
X00171Y0245225
X0015Y0249
X0044725Y0246825
X0114475Y0239125
X0119825Y024205
X01415Y02489
X0166275Y024515
X01702Y02391
X0179425Y02467
X0195175Y024885
T07
X014015Y010735
Y010989
X0150775Y0108575
X0153315
T08
X005885Y0104975
X00669Y0104975
X0109225Y010475
Y01022
X0109212Y0099659
X0109199Y0097122
Y0094581
X0179925Y01007
X01799276Y01032408
X02004254
Y01007008
X0025475Y0161095
Y0163635
Y0166175
Y0168715
Y0171255
Y0173795
Y0176335
Y0178875
X00712Y017895
Y01764
X0071175Y0173875
Y0171325
Y0168775
X00712Y016625
Y01637
Y016115
X0085775Y0161095
Y0163635
Y0166175
Y0168715
Y0171255
Y0173795
Y0176335
Y0178875
X01315Y017895
Y01764
X0131475Y0173875
Y0171325
Y0168775
X01315Y016625
Y01637
Y016115
X0146075Y0161095
Y0163635
Y0166175
Y0168715
Y0171255
Y0173795
Y0176335
Y0178875
X01918Y017895
Y01764
X0191775Y0173875
Y0171325
Y0168775
X01918Y016625
Y01637
Y016115
X019175Y02215
Y022405
Y02266
X0191725Y0229125
Y0231675
Y0234225
X019175Y023675
X0146025Y0236685
Y0234145
Y0231605
Y0229065
Y0226525
Y0223985
Y0221445
X01315Y02215
Y022405
Y02266
X0131475Y0229125
Y0231675
Y0234225
X01315Y023675
X0085775Y0236685
Y0234145
Y0231605
Y0229065
Y0226525
Y0223985
Y0221445
X0071225Y02215
Y022405
Y02266
X00712Y0229125
Y0231675
Y0234225
X0071225Y023675
X00255Y0236685
Y0234145
Y0231605
Y0229065
Y0226525
Y0223985
Y0221445
Y0239225
X0071225Y02393
X0085775Y0239225
X01315Y02393
X0146025Y0239225
X019175Y02393
T10
X001535Y010005
X00154Y011025
X013896Y01152479
X01415
Y01177879
X013896Y01177879
Y01203279
X01415Y01203279
Y01228679
X013896Y01228679
X0139725Y021105
X01415211Y02128461
X01433171Y02146421
X01451132Y02164382
X01469092Y02182342
X01487053Y02200303
T11
X0116168Y0089156
Y0094236
X0128868
Y0089156
X0136243
Y0094236
X0148943
Y0089156
X01657Y0086733
X01657Y0106733
X01907Y0132475
X0190675Y0134775
X01907Y0137075
M30
