G04*
G04 #@! TF.GenerationSoftware,Altium Limited,Altium Designer,23.3.1 (30)*
G04*
G04 Layer_Color=65535*
%FSLAX44Y44*%
%MOMM*%
G71*
G04*
G04 #@! TF.SameCoordinates,CBA1B8D9-47E8-49AD-825A-66903E3D66A9*
G04*
G04*
G04 #@! TF.FilePolarity,Positive*
G04*
G01*
G75*
%ADD10C,0.5000*%
%ADD11C,0.4000*%
%ADD12C,0.2540*%
%ADD13C,0.2000*%
%ADD14C,0.3500*%
%ADD15C,0.2032*%
%ADD16C,0.1524*%
%ADD17R,5.2070X5.2070*%
%ADD18R,6.2230X4.6990*%
%ADD19R,0.5250X9.6500*%
%ADD20R,10.0750X0.7750*%
%ADD21R,0.6750X9.9000*%
%ADD22R,0.4750X20.3750*%
%ADD23R,0.8750X9.7500*%
%ADD24R,10.0000X0.8000*%
%ADD25R,10.0000X0.7250*%
%ADD26R,0.5250X9.7000*%
%ADD27R,10.0750X0.8250*%
%ADD28R,20.0500X0.7750*%
%ADD29R,1.5500X1.3750*%
D10*
X1022974Y2578750D02*
G03*
X1022974Y2578750I-9724J0D01*
G01*
X1002974Y908750D02*
G03*
X1002974Y908750I-9724J0D01*
G01*
X222974Y1348750D02*
G03*
X222974Y1348750I-9724J0D01*
G01*
X1832974Y868750D02*
G03*
X1832974Y868750I-9724J0D01*
G01*
X2032974Y2568750D02*
G03*
X2032974Y2568750I-9724J0D01*
G01*
X162974Y2578750D02*
G03*
X162974Y2578750I-9724J0D01*
G01*
X744000Y986250D02*
G03*
X744000Y986250I-115000J0D01*
G01*
X226000Y2050250D02*
G03*
X226000Y2050250I-15000J0D01*
G01*
X304000D02*
G03*
X304000Y2050250I-15000J0D01*
G01*
X382000D02*
G03*
X382000Y2050250I-15000J0D01*
G01*
X460000D02*
G03*
X460000Y2050250I-15000J0D01*
G01*
X538000D02*
G03*
X538000Y2050250I-15000J0D01*
G01*
X616000D02*
G03*
X616000Y2050250I-15000J0D01*
G01*
X685428D02*
G03*
X685428Y2050250I-15000J0D01*
G01*
X772000Y2050315D02*
G03*
X772000Y2050250I-15000J-65D01*
G01*
X226000Y2121929D02*
G03*
X226000Y2121929I-15000J0D01*
G01*
X304000D02*
G03*
X304000Y2121929I-15000J0D01*
G01*
X382000D02*
G03*
X382000Y2121929I-15000J0D01*
G01*
X460000D02*
G03*
X460000Y2121929I-15000J0D01*
G01*
X538000D02*
G03*
X538000Y2121929I-15000J0D01*
G01*
X616000D02*
G03*
X616000Y2121929I-15000J0D01*
G01*
X685428D02*
G03*
X685428Y2121929I-15000J0D01*
G01*
X772000Y2121994D02*
G03*
X772000Y2121929I-15000J-65D01*
G01*
X226000Y2193607D02*
G03*
X226000Y2193607I-15000J0D01*
G01*
X304000D02*
G03*
X304000Y2193607I-15000J0D01*
G01*
X382000D02*
G03*
X382000Y2193607I-15000J0D01*
G01*
X460000D02*
G03*
X460000Y2193607I-15000J0D01*
G01*
X538000D02*
G03*
X538000Y2193607I-15000J0D01*
G01*
X616000D02*
G03*
X616000Y2193607I-15000J0D01*
G01*
X685428D02*
G03*
X685428Y2193607I-15000J0D01*
G01*
X772000Y2193672D02*
G03*
X772000Y2193607I-15000J-65D01*
G01*
X226000Y2265286D02*
G03*
X226000Y2265286I-15000J0D01*
G01*
X304000D02*
G03*
X304000Y2265286I-15000J0D01*
G01*
X382000D02*
G03*
X382000Y2265286I-15000J0D01*
G01*
X460000D02*
G03*
X460000Y2265286I-15000J0D01*
G01*
X538000D02*
G03*
X538000Y2265286I-15000J0D01*
G01*
X616000D02*
G03*
X616000Y2265286I-15000J0D01*
G01*
X685428D02*
G03*
X685428Y2265286I-15000J0D01*
G01*
X772000Y2265351D02*
G03*
X772000Y2265286I-15000J-65D01*
G01*
X226000Y2336964D02*
G03*
X226000Y2336964I-15000J0D01*
G01*
X304000D02*
G03*
X304000Y2336964I-15000J0D01*
G01*
X382000D02*
G03*
X382000Y2336964I-15000J0D01*
G01*
X460000D02*
G03*
X460000Y2336964I-15000J0D01*
G01*
X538000D02*
G03*
X538000Y2336964I-15000J0D01*
G01*
X616000D02*
G03*
X616000Y2336964I-15000J0D01*
G01*
X685428D02*
G03*
X685428Y2336964I-15000J0D01*
G01*
X772000Y2337029D02*
G03*
X772000Y2336964I-15000J-65D01*
G01*
X226000Y2408643D02*
G03*
X226000Y2408643I-15000J0D01*
G01*
X304000D02*
G03*
X304000Y2408643I-15000J0D01*
G01*
X382000D02*
G03*
X382000Y2408643I-15000J0D01*
G01*
X460000D02*
G03*
X460000Y2408643I-15000J0D01*
G01*
X538000D02*
G03*
X538000Y2408643I-15000J0D01*
G01*
X616000D02*
G03*
X616000Y2408643I-15000J0D01*
G01*
X685428D02*
G03*
X685428Y2408643I-15000J0D01*
G01*
X772000Y2408708D02*
G03*
X772000Y2408643I-15000J-65D01*
G01*
X226000Y2480321D02*
G03*
X226000Y2480321I-15000J0D01*
G01*
X304000D02*
G03*
X304000Y2480321I-15000J0D01*
G01*
X382000D02*
G03*
X382000Y2480321I-15000J0D01*
G01*
X460000D02*
G03*
X460000Y2480321I-15000J0D01*
G01*
X538000D02*
G03*
X538000Y2480321I-15000J0D01*
G01*
X616000D02*
G03*
X616000Y2480321I-15000J0D01*
G01*
X685428D02*
G03*
X685428Y2480321I-15000J0D01*
G01*
X772000Y2480386D02*
G03*
X772000Y2480321I-15000J-65D01*
G01*
X772000Y2552065D02*
G03*
X772000Y2552000I-15000J-65D01*
G01*
X685428Y2552000D02*
G03*
X685428Y2552000I-15000J0D01*
G01*
X609607D02*
G03*
X609607Y2552000I-15000J0D01*
G01*
X533786D02*
G03*
X533786Y2552000I-15000J0D01*
G01*
X457964D02*
G03*
X457964Y2552000I-15000J0D01*
G01*
X382143D02*
G03*
X382143Y2552000I-15000J0D01*
G01*
X306321D02*
G03*
X306321Y2552000I-15000J0D01*
G01*
X226000Y2552000D02*
G03*
X226000Y2552000I-15000J0D01*
G01*
X828750Y2050250D02*
G03*
X828750Y2050250I-15000J0D01*
G01*
X906750D02*
G03*
X906750Y2050250I-15000J0D01*
G01*
X984750D02*
G03*
X984750Y2050250I-15000J0D01*
G01*
X1062750D02*
G03*
X1062750Y2050250I-15000J0D01*
G01*
X1140750D02*
G03*
X1140750Y2050250I-15000J0D01*
G01*
X1218750D02*
G03*
X1218750Y2050250I-15000J0D01*
G01*
X1288178D02*
G03*
X1288178Y2050250I-15000J0D01*
G01*
X1374750Y2050315D02*
G03*
X1374750Y2050250I-15000J-65D01*
G01*
X828750Y2121929D02*
G03*
X828750Y2121929I-15000J0D01*
G01*
X906750D02*
G03*
X906750Y2121929I-15000J0D01*
G01*
X984750D02*
G03*
X984750Y2121929I-15000J0D01*
G01*
X1062750D02*
G03*
X1062750Y2121929I-15000J0D01*
G01*
X1140750D02*
G03*
X1140750Y2121929I-15000J0D01*
G01*
X1218750D02*
G03*
X1218750Y2121929I-15000J0D01*
G01*
X1288178D02*
G03*
X1288178Y2121929I-15000J0D01*
G01*
X1374750Y2121994D02*
G03*
X1374750Y2121929I-15000J-65D01*
G01*
X828750Y2193607D02*
G03*
X828750Y2193607I-15000J0D01*
G01*
X906750D02*
G03*
X906750Y2193607I-15000J0D01*
G01*
X984750D02*
G03*
X984750Y2193607I-15000J0D01*
G01*
X1062750D02*
G03*
X1062750Y2193607I-15000J0D01*
G01*
X1140750D02*
G03*
X1140750Y2193607I-15000J0D01*
G01*
X1218750D02*
G03*
X1218750Y2193607I-15000J0D01*
G01*
X1288178D02*
G03*
X1288178Y2193607I-15000J0D01*
G01*
X1374750Y2193672D02*
G03*
X1374750Y2193607I-15000J-65D01*
G01*
X828750Y2265286D02*
G03*
X828750Y2265286I-15000J0D01*
G01*
X906750D02*
G03*
X906750Y2265286I-15000J0D01*
G01*
X984750D02*
G03*
X984750Y2265286I-15000J0D01*
G01*
X1062750D02*
G03*
X1062750Y2265286I-15000J0D01*
G01*
X1140750D02*
G03*
X1140750Y2265286I-15000J0D01*
G01*
X1218750D02*
G03*
X1218750Y2265286I-15000J0D01*
G01*
X1288178D02*
G03*
X1288178Y2265286I-15000J0D01*
G01*
X1374749Y2265351D02*
G03*
X1374750Y2265286I-15000J-65D01*
G01*
X828750Y2336964D02*
G03*
X828750Y2336964I-15000J0D01*
G01*
X906750D02*
G03*
X906750Y2336964I-15000J0D01*
G01*
X984750D02*
G03*
X984750Y2336964I-15000J0D01*
G01*
X1062750D02*
G03*
X1062750Y2336964I-15000J0D01*
G01*
X1140750D02*
G03*
X1140750Y2336964I-15000J0D01*
G01*
X1218750D02*
G03*
X1218750Y2336964I-15000J0D01*
G01*
X1288178D02*
G03*
X1288178Y2336964I-15000J0D01*
G01*
X1374750Y2337029D02*
G03*
X1374750Y2336964I-15000J-65D01*
G01*
X828750Y2408643D02*
G03*
X828750Y2408643I-15000J0D01*
G01*
X906750D02*
G03*
X906750Y2408643I-15000J0D01*
G01*
X984750D02*
G03*
X984750Y2408643I-15000J0D01*
G01*
X1062750D02*
G03*
X1062750Y2408643I-15000J0D01*
G01*
X1140750D02*
G03*
X1140750Y2408643I-15000J0D01*
G01*
X1218750D02*
G03*
X1218750Y2408643I-15000J0D01*
G01*
X1288178D02*
G03*
X1288178Y2408643I-15000J0D01*
G01*
X1374750Y2408708D02*
G03*
X1374750Y2408643I-15000J-65D01*
G01*
X828750Y2480321D02*
G03*
X828750Y2480321I-15000J0D01*
G01*
X906750D02*
G03*
X906750Y2480321I-15000J0D01*
G01*
X984750D02*
G03*
X984750Y2480321I-15000J0D01*
G01*
X1062750D02*
G03*
X1062750Y2480321I-15000J0D01*
G01*
X1140750D02*
G03*
X1140750Y2480321I-15000J0D01*
G01*
X1218750D02*
G03*
X1218750Y2480321I-15000J0D01*
G01*
X1288178D02*
G03*
X1288178Y2480321I-15000J0D01*
G01*
X1374750Y2480386D02*
G03*
X1374750Y2480321I-15000J-65D01*
G01*
X1374750Y2552065D02*
G03*
X1374750Y2552000I-15000J-65D01*
G01*
X1288178Y2552000D02*
G03*
X1288178Y2552000I-15000J0D01*
G01*
X1212357D02*
G03*
X1212357Y2552000I-15000J0D01*
G01*
X1136536D02*
G03*
X1136536Y2552000I-15000J0D01*
G01*
X1060714D02*
G03*
X1060714Y2552000I-15000J0D01*
G01*
X984893D02*
G03*
X984893Y2552000I-15000J0D01*
G01*
X909071D02*
G03*
X909071Y2552000I-15000J0D01*
G01*
X828750Y2552000D02*
G03*
X828750Y2552000I-15000J0D01*
G01*
X1431250Y2050250D02*
G03*
X1431250Y2050250I-15000J0D01*
G01*
X1509250D02*
G03*
X1509250Y2050250I-15000J0D01*
G01*
X1587250D02*
G03*
X1587250Y2050250I-15000J0D01*
G01*
X1665250D02*
G03*
X1665250Y2050250I-15000J0D01*
G01*
X1743250D02*
G03*
X1743250Y2050250I-15000J0D01*
G01*
X1821250D02*
G03*
X1821250Y2050250I-15000J0D01*
G01*
X1890678D02*
G03*
X1890678Y2050250I-15000J0D01*
G01*
X1977250Y2050315D02*
G03*
X1977250Y2050250I-15000J-65D01*
G01*
X1431250Y2121929D02*
G03*
X1431250Y2121929I-15000J0D01*
G01*
X1509250D02*
G03*
X1509250Y2121929I-15000J0D01*
G01*
X1587250D02*
G03*
X1587250Y2121929I-15000J0D01*
G01*
X1665250D02*
G03*
X1665250Y2121929I-15000J0D01*
G01*
X1743250D02*
G03*
X1743250Y2121929I-15000J0D01*
G01*
X1821250D02*
G03*
X1821250Y2121929I-15000J0D01*
G01*
X1890678D02*
G03*
X1890678Y2121929I-15000J0D01*
G01*
X1977250Y2121994D02*
G03*
X1977250Y2121929I-15000J-65D01*
G01*
X1431250Y2193607D02*
G03*
X1431250Y2193607I-15000J0D01*
G01*
X1509250D02*
G03*
X1509250Y2193607I-15000J0D01*
G01*
X1587250D02*
G03*
X1587250Y2193607I-15000J0D01*
G01*
X1665250D02*
G03*
X1665250Y2193607I-15000J0D01*
G01*
X1743250D02*
G03*
X1743250Y2193607I-15000J0D01*
G01*
X1821250D02*
G03*
X1821250Y2193607I-15000J0D01*
G01*
X1890678D02*
G03*
X1890678Y2193607I-15000J0D01*
G01*
X1977250Y2193672D02*
G03*
X1977250Y2193607I-15000J-65D01*
G01*
X1431250Y2265286D02*
G03*
X1431250Y2265286I-15000J0D01*
G01*
X1509250D02*
G03*
X1509250Y2265286I-15000J0D01*
G01*
X1587250D02*
G03*
X1587250Y2265286I-15000J0D01*
G01*
X1665250D02*
G03*
X1665250Y2265286I-15000J0D01*
G01*
X1743250D02*
G03*
X1743250Y2265286I-15000J0D01*
G01*
X1821250D02*
G03*
X1821250Y2265286I-15000J0D01*
G01*
X1890678D02*
G03*
X1890678Y2265286I-15000J0D01*
G01*
X1977249Y2265351D02*
G03*
X1977250Y2265286I-15000J-65D01*
G01*
X1431250Y2336964D02*
G03*
X1431250Y2336964I-15000J0D01*
G01*
X1509250D02*
G03*
X1509250Y2336964I-15000J0D01*
G01*
X1587250D02*
G03*
X1587250Y2336964I-15000J0D01*
G01*
X1665250D02*
G03*
X1665250Y2336964I-15000J0D01*
G01*
X1743250D02*
G03*
X1743250Y2336964I-15000J0D01*
G01*
X1821250D02*
G03*
X1821250Y2336964I-15000J0D01*
G01*
X1890678D02*
G03*
X1890678Y2336964I-15000J0D01*
G01*
X1977250Y2337029D02*
G03*
X1977250Y2336964I-15000J-65D01*
G01*
X1431250Y2408643D02*
G03*
X1431250Y2408643I-15000J0D01*
G01*
X1509250D02*
G03*
X1509250Y2408643I-15000J0D01*
G01*
X1587250D02*
G03*
X1587250Y2408643I-15000J0D01*
G01*
X1665250D02*
G03*
X1665250Y2408643I-15000J0D01*
G01*
X1743250D02*
G03*
X1743250Y2408643I-15000J0D01*
G01*
X1821250D02*
G03*
X1821250Y2408643I-15000J0D01*
G01*
X1890678D02*
G03*
X1890678Y2408643I-15000J0D01*
G01*
X1977250Y2408708D02*
G03*
X1977250Y2408643I-15000J-65D01*
G01*
X1431250Y2480321D02*
G03*
X1431250Y2480321I-15000J0D01*
G01*
X1509250D02*
G03*
X1509250Y2480321I-15000J0D01*
G01*
X1587250D02*
G03*
X1587250Y2480321I-15000J0D01*
G01*
X1665250D02*
G03*
X1665250Y2480321I-15000J0D01*
G01*
X1743250D02*
G03*
X1743250Y2480321I-15000J0D01*
G01*
X1821250D02*
G03*
X1821250Y2480321I-15000J0D01*
G01*
X1890678D02*
G03*
X1890678Y2480321I-15000J0D01*
G01*
X1977250Y2480386D02*
G03*
X1977250Y2480321I-15000J-65D01*
G01*
X1977250Y2552065D02*
G03*
X1977250Y2552000I-15000J-65D01*
G01*
X1890678Y2552000D02*
G03*
X1890678Y2552000I-15000J0D01*
G01*
X1814857D02*
G03*
X1814857Y2552000I-15000J0D01*
G01*
X1739036D02*
G03*
X1739036Y2552000I-15000J0D01*
G01*
X1663214D02*
G03*
X1663214Y2552000I-15000J0D01*
G01*
X1587393D02*
G03*
X1587393Y2552000I-15000J0D01*
G01*
X1511571D02*
G03*
X1511571Y2552000I-15000J0D01*
G01*
X1431250Y2552000D02*
G03*
X1431250Y2552000I-15000J0D01*
G01*
X225750Y1446750D02*
G03*
X225750Y1446750I-15000J0D01*
G01*
X303750D02*
G03*
X303750Y1446750I-15000J0D01*
G01*
X381750D02*
G03*
X381750Y1446750I-15000J0D01*
G01*
X459750D02*
G03*
X459750Y1446750I-15000J0D01*
G01*
X537750D02*
G03*
X537750Y1446750I-15000J0D01*
G01*
X615750D02*
G03*
X615750Y1446750I-15000J0D01*
G01*
X685179D02*
G03*
X685179Y1446750I-15000J0D01*
G01*
X771750Y1446815D02*
G03*
X771750Y1446750I-15000J-65D01*
G01*
X225750Y1518428D02*
G03*
X225750Y1518428I-15000J0D01*
G01*
X303750D02*
G03*
X303750Y1518428I-15000J0D01*
G01*
X381750D02*
G03*
X381750Y1518428I-15000J0D01*
G01*
X459750D02*
G03*
X459750Y1518428I-15000J0D01*
G01*
X537750D02*
G03*
X537750Y1518428I-15000J0D01*
G01*
X615750D02*
G03*
X615750Y1518428I-15000J0D01*
G01*
X685179D02*
G03*
X685179Y1518428I-15000J0D01*
G01*
X771750Y1518493D02*
G03*
X771750Y1518428I-15000J-65D01*
G01*
X225750Y1590107D02*
G03*
X225750Y1590107I-15000J0D01*
G01*
X303750D02*
G03*
X303750Y1590107I-15000J0D01*
G01*
X381750D02*
G03*
X381750Y1590107I-15000J0D01*
G01*
X459750D02*
G03*
X459750Y1590107I-15000J0D01*
G01*
X537750D02*
G03*
X537750Y1590107I-15000J0D01*
G01*
X615750D02*
G03*
X615750Y1590107I-15000J0D01*
G01*
X685179D02*
G03*
X685179Y1590107I-15000J0D01*
G01*
X771750Y1590172D02*
G03*
X771750Y1590107I-15000J-65D01*
G01*
X225750Y1661786D02*
G03*
X225750Y1661786I-15000J0D01*
G01*
X303750D02*
G03*
X303750Y1661786I-15000J0D01*
G01*
X381750D02*
G03*
X381750Y1661786I-15000J0D01*
G01*
X459750D02*
G03*
X459750Y1661786I-15000J0D01*
G01*
X537750D02*
G03*
X537750Y1661786I-15000J0D01*
G01*
X615750D02*
G03*
X615750Y1661786I-15000J0D01*
G01*
X685179D02*
G03*
X685179Y1661786I-15000J0D01*
G01*
X771749Y1661851D02*
G03*
X771750Y1661786I-15000J-65D01*
G01*
X225750Y1733464D02*
G03*
X225750Y1733464I-15000J0D01*
G01*
X303750D02*
G03*
X303750Y1733464I-15000J0D01*
G01*
X381750D02*
G03*
X381750Y1733464I-15000J0D01*
G01*
X459750D02*
G03*
X459750Y1733464I-15000J0D01*
G01*
X537750D02*
G03*
X537750Y1733464I-15000J0D01*
G01*
X615750D02*
G03*
X615750Y1733464I-15000J0D01*
G01*
X685179D02*
G03*
X685179Y1733464I-15000J0D01*
G01*
X771750Y1733529D02*
G03*
X771750Y1733464I-15000J-65D01*
G01*
X225750Y1805143D02*
G03*
X225750Y1805143I-15000J0D01*
G01*
X303750D02*
G03*
X303750Y1805143I-15000J0D01*
G01*
X381750D02*
G03*
X381750Y1805143I-15000J0D01*
G01*
X459750D02*
G03*
X459750Y1805143I-15000J0D01*
G01*
X537750D02*
G03*
X537750Y1805143I-15000J0D01*
G01*
X615750D02*
G03*
X615750Y1805143I-15000J0D01*
G01*
X685179D02*
G03*
X685179Y1805143I-15000J0D01*
G01*
X771750Y1805208D02*
G03*
X771750Y1805143I-15000J-65D01*
G01*
X225750Y1876821D02*
G03*
X225750Y1876821I-15000J0D01*
G01*
X303750D02*
G03*
X303750Y1876821I-15000J0D01*
G01*
X381750D02*
G03*
X381750Y1876821I-15000J0D01*
G01*
X459750D02*
G03*
X459750Y1876821I-15000J0D01*
G01*
X537750D02*
G03*
X537750Y1876821I-15000J0D01*
G01*
X615750D02*
G03*
X615750Y1876821I-15000J0D01*
G01*
X685179D02*
G03*
X685179Y1876821I-15000J0D01*
G01*
X771750Y1876886D02*
G03*
X771750Y1876821I-15000J-65D01*
G01*
X771750Y1948565D02*
G03*
X771750Y1948500I-15000J-65D01*
G01*
X685179Y1948500D02*
G03*
X685179Y1948500I-15000J0D01*
G01*
X609357D02*
G03*
X609357Y1948500I-15000J0D01*
G01*
X533536D02*
G03*
X533536Y1948500I-15000J0D01*
G01*
X457714D02*
G03*
X457714Y1948500I-15000J0D01*
G01*
X381893D02*
G03*
X381893Y1948500I-15000J0D01*
G01*
X306071D02*
G03*
X306071Y1948500I-15000J0D01*
G01*
X225750Y1948500D02*
G03*
X225750Y1948500I-15000J0D01*
G01*
X828750Y1446750D02*
G03*
X828750Y1446750I-15000J0D01*
G01*
X906750D02*
G03*
X906750Y1446750I-15000J0D01*
G01*
X984750D02*
G03*
X984750Y1446750I-15000J0D01*
G01*
X1062750D02*
G03*
X1062750Y1446750I-15000J0D01*
G01*
X1140750D02*
G03*
X1140750Y1446750I-15000J0D01*
G01*
X1218750D02*
G03*
X1218750Y1446750I-15000J0D01*
G01*
X1288178D02*
G03*
X1288178Y1446750I-15000J0D01*
G01*
X1374750Y1446815D02*
G03*
X1374750Y1446750I-15000J-65D01*
G01*
X828750Y1518428D02*
G03*
X828750Y1518428I-15000J0D01*
G01*
X906750D02*
G03*
X906750Y1518428I-15000J0D01*
G01*
X984750D02*
G03*
X984750Y1518428I-15000J0D01*
G01*
X1062750D02*
G03*
X1062750Y1518428I-15000J0D01*
G01*
X1140750D02*
G03*
X1140750Y1518428I-15000J0D01*
G01*
X1218750D02*
G03*
X1218750Y1518428I-15000J0D01*
G01*
X1288178D02*
G03*
X1288178Y1518428I-15000J0D01*
G01*
X1374750Y1518493D02*
G03*
X1374750Y1518428I-15000J-65D01*
G01*
X828750Y1590107D02*
G03*
X828750Y1590107I-15000J0D01*
G01*
X906750D02*
G03*
X906750Y1590107I-15000J0D01*
G01*
X984750D02*
G03*
X984750Y1590107I-15000J0D01*
G01*
X1062750D02*
G03*
X1062750Y1590107I-15000J0D01*
G01*
X1140750D02*
G03*
X1140750Y1590107I-15000J0D01*
G01*
X1218750D02*
G03*
X1218750Y1590107I-15000J0D01*
G01*
X1288178D02*
G03*
X1288178Y1590107I-15000J0D01*
G01*
X1374750Y1590172D02*
G03*
X1374750Y1590107I-15000J-65D01*
G01*
X828750Y1661786D02*
G03*
X828750Y1661786I-15000J0D01*
G01*
X906750D02*
G03*
X906750Y1661786I-15000J0D01*
G01*
X984750D02*
G03*
X984750Y1661786I-15000J0D01*
G01*
X1062750D02*
G03*
X1062750Y1661786I-15000J0D01*
G01*
X1140750D02*
G03*
X1140750Y1661786I-15000J0D01*
G01*
X1218750D02*
G03*
X1218750Y1661786I-15000J0D01*
G01*
X1288178D02*
G03*
X1288178Y1661786I-15000J0D01*
G01*
X1374749Y1661851D02*
G03*
X1374750Y1661786I-15000J-65D01*
G01*
X828750Y1733464D02*
G03*
X828750Y1733464I-15000J0D01*
G01*
X906750D02*
G03*
X906750Y1733464I-15000J0D01*
G01*
X984750D02*
G03*
X984750Y1733464I-15000J0D01*
G01*
X1062750D02*
G03*
X1062750Y1733464I-15000J0D01*
G01*
X1140750D02*
G03*
X1140750Y1733464I-15000J0D01*
G01*
X1218750D02*
G03*
X1218750Y1733464I-15000J0D01*
G01*
X1288178D02*
G03*
X1288178Y1733464I-15000J0D01*
G01*
X1374750Y1733529D02*
G03*
X1374750Y1733464I-15000J-65D01*
G01*
X828750Y1805143D02*
G03*
X828750Y1805143I-15000J0D01*
G01*
X906750D02*
G03*
X906750Y1805143I-15000J0D01*
G01*
X984750D02*
G03*
X984750Y1805143I-15000J0D01*
G01*
X1062750D02*
G03*
X1062750Y1805143I-15000J0D01*
G01*
X1140750D02*
G03*
X1140750Y1805143I-15000J0D01*
G01*
X1218750D02*
G03*
X1218750Y1805143I-15000J0D01*
G01*
X1288178D02*
G03*
X1288178Y1805143I-15000J0D01*
G01*
X1374750Y1805208D02*
G03*
X1374750Y1805143I-15000J-65D01*
G01*
X828750Y1876821D02*
G03*
X828750Y1876821I-15000J0D01*
G01*
X906750D02*
G03*
X906750Y1876821I-15000J0D01*
G01*
X984750D02*
G03*
X984750Y1876821I-15000J0D01*
G01*
X1062750D02*
G03*
X1062750Y1876821I-15000J0D01*
G01*
X1140750D02*
G03*
X1140750Y1876821I-15000J0D01*
G01*
X1218750D02*
G03*
X1218750Y1876821I-15000J0D01*
G01*
X1288178D02*
G03*
X1288178Y1876821I-15000J0D01*
G01*
X1374750Y1876886D02*
G03*
X1374750Y1876821I-15000J-65D01*
G01*
X1374750Y1948565D02*
G03*
X1374750Y1948500I-15000J-65D01*
G01*
X1288178Y1948500D02*
G03*
X1288178Y1948500I-15000J0D01*
G01*
X1212357D02*
G03*
X1212357Y1948500I-15000J0D01*
G01*
X1136536D02*
G03*
X1136536Y1948500I-15000J0D01*
G01*
X1060714D02*
G03*
X1060714Y1948500I-15000J0D01*
G01*
X984893D02*
G03*
X984893Y1948500I-15000J0D01*
G01*
X909071D02*
G03*
X909071Y1948500I-15000J0D01*
G01*
X828750Y1948500D02*
G03*
X828750Y1948500I-15000J0D01*
G01*
X1431750Y1446750D02*
G03*
X1431750Y1446750I-15000J0D01*
G01*
X1509750D02*
G03*
X1509750Y1446750I-15000J0D01*
G01*
X1587750D02*
G03*
X1587750Y1446750I-15000J0D01*
G01*
X1665750D02*
G03*
X1665750Y1446750I-15000J0D01*
G01*
X1743750D02*
G03*
X1743750Y1446750I-15000J0D01*
G01*
X1821750D02*
G03*
X1821750Y1446750I-15000J0D01*
G01*
X1891178D02*
G03*
X1891178Y1446750I-15000J0D01*
G01*
X1977750Y1446815D02*
G03*
X1977750Y1446750I-15000J-65D01*
G01*
X1431750Y1518428D02*
G03*
X1431750Y1518428I-15000J0D01*
G01*
X1509750D02*
G03*
X1509750Y1518428I-15000J0D01*
G01*
X1587750D02*
G03*
X1587750Y1518428I-15000J0D01*
G01*
X1665750D02*
G03*
X1665750Y1518428I-15000J0D01*
G01*
X1743750D02*
G03*
X1743750Y1518428I-15000J0D01*
G01*
X1821750D02*
G03*
X1821750Y1518428I-15000J0D01*
G01*
X1891178D02*
G03*
X1891178Y1518428I-15000J0D01*
G01*
X1977750Y1518493D02*
G03*
X1977750Y1518428I-15000J-65D01*
G01*
X1431750Y1590107D02*
G03*
X1431750Y1590107I-15000J0D01*
G01*
X1509750D02*
G03*
X1509750Y1590107I-15000J0D01*
G01*
X1587750D02*
G03*
X1587750Y1590107I-15000J0D01*
G01*
X1665750D02*
G03*
X1665750Y1590107I-15000J0D01*
G01*
X1743750D02*
G03*
X1743750Y1590107I-15000J0D01*
G01*
X1821750D02*
G03*
X1821750Y1590107I-15000J0D01*
G01*
X1891178D02*
G03*
X1891178Y1590107I-15000J0D01*
G01*
X1977750Y1590172D02*
G03*
X1977750Y1590107I-15000J-65D01*
G01*
X1431750Y1661786D02*
G03*
X1431750Y1661786I-15000J0D01*
G01*
X1509750D02*
G03*
X1509750Y1661786I-15000J0D01*
G01*
X1587750D02*
G03*
X1587750Y1661786I-15000J0D01*
G01*
X1665750D02*
G03*
X1665750Y1661786I-15000J0D01*
G01*
X1743750D02*
G03*
X1743750Y1661786I-15000J0D01*
G01*
X1821750D02*
G03*
X1821750Y1661786I-15000J0D01*
G01*
X1891178D02*
G03*
X1891178Y1661786I-15000J0D01*
G01*
X1977749Y1661851D02*
G03*
X1977750Y1661786I-15000J-65D01*
G01*
X1431750Y1733464D02*
G03*
X1431750Y1733464I-15000J0D01*
G01*
X1509750D02*
G03*
X1509750Y1733464I-15000J0D01*
G01*
X1587750D02*
G03*
X1587750Y1733464I-15000J0D01*
G01*
X1665750D02*
G03*
X1665750Y1733464I-15000J0D01*
G01*
X1743750D02*
G03*
X1743750Y1733464I-15000J0D01*
G01*
X1821750D02*
G03*
X1821750Y1733464I-15000J0D01*
G01*
X1891178D02*
G03*
X1891178Y1733464I-15000J0D01*
G01*
X1977750Y1733529D02*
G03*
X1977750Y1733464I-15000J-65D01*
G01*
X1431750Y1805143D02*
G03*
X1431750Y1805143I-15000J0D01*
G01*
X1509750D02*
G03*
X1509750Y1805143I-15000J0D01*
G01*
X1587750D02*
G03*
X1587750Y1805143I-15000J0D01*
G01*
X1665750D02*
G03*
X1665750Y1805143I-15000J0D01*
G01*
X1743750D02*
G03*
X1743750Y1805143I-15000J0D01*
G01*
X1821750D02*
G03*
X1821750Y1805143I-15000J0D01*
G01*
X1891178D02*
G03*
X1891178Y1805143I-15000J0D01*
G01*
X1977750Y1805208D02*
G03*
X1977750Y1805143I-15000J-65D01*
G01*
X1431750Y1876821D02*
G03*
X1431750Y1876821I-15000J0D01*
G01*
X1509750D02*
G03*
X1509750Y1876821I-15000J0D01*
G01*
X1587750D02*
G03*
X1587750Y1876821I-15000J0D01*
G01*
X1665750D02*
G03*
X1665750Y1876821I-15000J0D01*
G01*
X1743750D02*
G03*
X1743750Y1876821I-15000J0D01*
G01*
X1821750D02*
G03*
X1821750Y1876821I-15000J0D01*
G01*
X1891178D02*
G03*
X1891178Y1876821I-15000J0D01*
G01*
X1977750Y1876886D02*
G03*
X1977750Y1876821I-15000J-65D01*
G01*
X1977750Y1948565D02*
G03*
X1977750Y1948500I-15000J-65D01*
G01*
X1891178Y1948500D02*
G03*
X1891178Y1948500I-15000J0D01*
G01*
X1815357D02*
G03*
X1815357Y1948500I-15000J0D01*
G01*
X1739536D02*
G03*
X1739536Y1948500I-15000J0D01*
G01*
X1663714D02*
G03*
X1663714Y1948500I-15000J0D01*
G01*
X1587893D02*
G03*
X1587893Y1948500I-15000J0D01*
G01*
X1512071D02*
G03*
X1512071Y1948500I-15000J0D01*
G01*
X1431750Y1948500D02*
G03*
X1431750Y1948500I-15000J0D01*
G01*
X1013250Y2578750D02*
Y2597500D01*
X1013250Y2578750D02*
X1034000D01*
X993250D02*
X1013250D01*
X1013250Y2560000D02*
Y2578750D01*
X993250Y908750D02*
Y927500D01*
X993250Y908750D02*
X1014000D01*
X973250D02*
X993250D01*
X993250Y890000D02*
Y908750D01*
X213250Y1348750D02*
Y1367500D01*
X213250Y1348750D02*
X234000D01*
X193250D02*
X213250D01*
X213250Y1330000D02*
Y1348750D01*
X1823250Y868750D02*
Y887500D01*
X1823250Y868750D02*
X1844000D01*
X1803250D02*
X1823250D01*
X1823250Y850000D02*
Y868750D01*
X2023250Y2568750D02*
Y2587500D01*
X2023250Y2568750D02*
X2044000D01*
X2003250D02*
X2023250D01*
X2023250Y2550000D02*
Y2568750D01*
X153250Y2578750D02*
Y2597500D01*
X153250Y2578750D02*
X174000D01*
X133250D02*
X153250D01*
X153250Y2560000D02*
Y2578750D01*
X1183480Y1118279D02*
X1465800Y1118279D01*
X1465800Y1266779D02*
X1465800Y1118279D01*
X1183480Y1266779D02*
X1465800D01*
X1183480D02*
X1183480Y1118279D01*
X1228310Y1196729D02*
X1228310Y1198979D01*
X1196060Y1196729D02*
X1228310Y1196729D01*
X1196060Y1184229D02*
Y1196729D01*
X1195810Y1209229D02*
Y1249229D01*
Y1209229D02*
X1228560D01*
X1228560Y1199229D01*
X1196060Y1184229D02*
X1228310Y1184229D01*
Y1171729D02*
Y1184229D01*
X1196060Y1171729D02*
X1228310D01*
X1196060Y1159229D02*
Y1171729D01*
Y1159229D02*
X1228310D01*
X1228310Y1146729D01*
X1196060D02*
X1228310D01*
X1196060Y1134229D02*
Y1146729D01*
Y1134229D02*
X1251060Y1134229D01*
X1337541Y1266790D02*
X1338800Y1118189D01*
X1110000Y865250D02*
Y1129720D01*
X769740Y865250D02*
X1110000Y865250D01*
X769740Y865250D02*
Y1129720D01*
X1110000D01*
X1924750Y1335250D02*
Y1362300D01*
X1925250Y1362800D02*
X1951450D01*
Y1309700D02*
Y1362800D01*
X1924750Y1309700D02*
X1951450D01*
X1924750Y1309700D02*
X1924750Y1309700D01*
X1924750Y1309700D02*
Y1335250D01*
X1774000Y971500D02*
X2029000D01*
X1774000D02*
Y1081500D01*
X2029000D01*
Y971500D02*
Y1081500D01*
X493000Y969500D02*
X493000Y995050D01*
X493000Y995050D02*
X493000Y995050D01*
X466300Y995050D02*
X493000D01*
X466300Y941950D02*
Y995050D01*
Y941950D02*
X492500D01*
X493000Y942450D02*
Y969500D01*
X2029750Y849080D02*
Y943080D01*
X1939750D02*
X2029750D01*
X1881750D02*
X1887750D01*
X1881750Y920580D02*
Y943080D01*
X1869750Y920580D02*
X1881750D01*
X1869750Y868330D02*
Y920580D01*
Y868330D02*
X1881750D01*
Y849080D02*
Y868330D01*
Y849080D02*
X2029750D01*
X1939750Y943080D02*
X1939750Y958080D01*
X1887750Y943080D02*
Y958080D01*
X1939750Y958080D01*
X1966750Y886080D02*
X2009750Y886025D01*
X1966750Y904080D02*
X2009750Y904136D01*
X1966750Y904080D02*
Y922080D01*
X2029750Y934080D01*
X1966750Y869080D02*
Y886080D01*
Y869080D02*
X2028750Y859080D01*
X188750Y2601750D02*
X782250D01*
X188750Y2008250D02*
Y2601750D01*
Y2008250D02*
X782250D01*
Y2601750D01*
X791500D02*
X1385000D01*
X791500Y2008250D02*
Y2601750D01*
Y2008250D02*
X1385000D01*
Y2601750D01*
X1394000D02*
X1987500D01*
X1394000Y2008250D02*
Y2601750D01*
Y2008250D02*
X1987500D01*
Y2601750D01*
X188500Y1998250D02*
X782000D01*
X188500Y1404750D02*
Y1998250D01*
Y1404750D02*
X782000D01*
Y1998250D01*
X791500D02*
X1385000D01*
X791500Y1404750D02*
Y1998250D01*
Y1404750D02*
X1385000D01*
Y1998250D01*
X1394500D02*
X1988000D01*
X1394500Y1404750D02*
Y1998250D01*
Y1404750D02*
X1988000D01*
Y1998250D01*
X247500Y2183332D02*
X250832Y2180000D01*
X257497D01*
X260829Y2183332D01*
Y2196661D01*
X257497Y2199994D01*
X250832D01*
X247500Y2196661D01*
Y2193329D01*
X250832Y2189997D01*
X260829D01*
X700750Y2180000D02*
X707414D01*
X704082D01*
Y2199994D01*
X700750Y2196661D01*
X717411D02*
X720743Y2199994D01*
X727408D01*
X730740Y2196661D01*
Y2183332D01*
X727408Y2180000D01*
X720743D01*
X717411Y2183332D01*
Y2196661D01*
X699000Y2415750D02*
X705665D01*
X702332D01*
Y2435744D01*
X699000Y2432411D01*
X728990Y2435744D02*
X722326Y2432411D01*
X715661Y2425747D01*
Y2419082D01*
X718994Y2415750D01*
X725658D01*
X728990Y2419082D01*
Y2422415D01*
X725658Y2425747D01*
X715661D01*
X251500Y2415750D02*
X258165D01*
X254832D01*
Y2435744D01*
X251500Y2432411D01*
X850250Y2183332D02*
X853582Y2180000D01*
X860247D01*
X863579Y2183332D01*
Y2196661D01*
X860247Y2199994D01*
X853582D01*
X850250Y2196661D01*
Y2193329D01*
X853582Y2189997D01*
X863579D01*
X1303500Y2180000D02*
X1310164D01*
X1306832D01*
Y2199994D01*
X1303500Y2196661D01*
X1320161D02*
X1323493Y2199994D01*
X1330158D01*
X1333490Y2196661D01*
Y2183332D01*
X1330158Y2180000D01*
X1323493D01*
X1320161Y2183332D01*
Y2196661D01*
X1301750Y2415750D02*
X1308414D01*
X1305082D01*
Y2435744D01*
X1301750Y2432411D01*
X1331740Y2435744D02*
X1325076Y2432411D01*
X1318411Y2425747D01*
Y2419082D01*
X1321743Y2415750D01*
X1328408D01*
X1331740Y2419082D01*
Y2422415D01*
X1328408Y2425747D01*
X1318411D01*
X854250Y2415750D02*
X860915D01*
X857582D01*
Y2435744D01*
X854250Y2432411D01*
X1452750Y2183332D02*
X1456082Y2180000D01*
X1462747D01*
X1466079Y2183332D01*
Y2196661D01*
X1462747Y2199994D01*
X1456082D01*
X1452750Y2196661D01*
Y2193329D01*
X1456082Y2189997D01*
X1466079D01*
X1906000Y2180000D02*
X1912664D01*
X1909332D01*
Y2199994D01*
X1906000Y2196661D01*
X1922661D02*
X1925993Y2199994D01*
X1932658D01*
X1935990Y2196661D01*
Y2183332D01*
X1932658Y2180000D01*
X1925993D01*
X1922661Y2183332D01*
Y2196661D01*
X1904250Y2415750D02*
X1910914D01*
X1907582D01*
Y2435744D01*
X1904250Y2432411D01*
X1934240Y2435744D02*
X1927576Y2432411D01*
X1920911Y2425747D01*
Y2419082D01*
X1924243Y2415750D01*
X1930908D01*
X1934240Y2419082D01*
Y2422415D01*
X1930908Y2425747D01*
X1920911D01*
X1456750Y2415750D02*
X1463414D01*
X1460082D01*
Y2435744D01*
X1456750Y2432411D01*
X247250Y1579832D02*
X250582Y1576500D01*
X257247D01*
X260579Y1579832D01*
Y1593161D01*
X257247Y1596494D01*
X250582D01*
X247250Y1593161D01*
Y1589829D01*
X250582Y1586497D01*
X260579D01*
X700500Y1576500D02*
X707165D01*
X703832D01*
Y1596494D01*
X700500Y1593161D01*
X717161D02*
X720493Y1596494D01*
X727158D01*
X730490Y1593161D01*
Y1579832D01*
X727158Y1576500D01*
X720493D01*
X717161Y1579832D01*
Y1593161D01*
X698750Y1812250D02*
X705415D01*
X702082D01*
Y1832244D01*
X698750Y1828911D01*
X728740Y1832244D02*
X722076Y1828911D01*
X715411Y1822247D01*
Y1815582D01*
X718744Y1812250D01*
X725408D01*
X728740Y1815582D01*
Y1818914D01*
X725408Y1822247D01*
X715411D01*
X251250Y1812250D02*
X257915D01*
X254582D01*
Y1832244D01*
X251250Y1828911D01*
X850250Y1579832D02*
X853582Y1576500D01*
X860247D01*
X863579Y1579832D01*
Y1593161D01*
X860247Y1596494D01*
X853582D01*
X850250Y1593161D01*
Y1589829D01*
X853582Y1586497D01*
X863579D01*
X1303500Y1576500D02*
X1310164D01*
X1306832D01*
Y1596494D01*
X1303500Y1593161D01*
X1320161D02*
X1323493Y1596494D01*
X1330158D01*
X1333490Y1593161D01*
Y1579832D01*
X1330158Y1576500D01*
X1323493D01*
X1320161Y1579832D01*
Y1593161D01*
X1301750Y1812250D02*
X1308414D01*
X1305082D01*
Y1832244D01*
X1301750Y1828911D01*
X1331740Y1832244D02*
X1325076Y1828911D01*
X1318411Y1822247D01*
Y1815582D01*
X1321743Y1812250D01*
X1328408D01*
X1331740Y1815582D01*
Y1818914D01*
X1328408Y1822247D01*
X1318411D01*
X854250Y1812250D02*
X860915D01*
X857582D01*
Y1832244D01*
X854250Y1828911D01*
X1453250Y1579832D02*
X1456582Y1576500D01*
X1463247D01*
X1466579Y1579832D01*
Y1593161D01*
X1463247Y1596494D01*
X1456582D01*
X1453250Y1593161D01*
Y1589829D01*
X1456582Y1586497D01*
X1466579D01*
X1906500Y1576500D02*
X1913165D01*
X1909832D01*
Y1596494D01*
X1906500Y1593161D01*
X1923161D02*
X1926494Y1596494D01*
X1933158D01*
X1936490Y1593161D01*
Y1579832D01*
X1933158Y1576500D01*
X1926494D01*
X1923161Y1579832D01*
Y1593161D01*
X1904750Y1812250D02*
X1911414D01*
X1908082D01*
Y1832244D01*
X1904750Y1828911D01*
X1934740Y1832244D02*
X1928076Y1828911D01*
X1921411Y1822247D01*
Y1815582D01*
X1924743Y1812250D01*
X1931408D01*
X1934740Y1815582D01*
Y1818914D01*
X1931408Y1822247D01*
X1921411D01*
X1457250Y1812250D02*
X1463914D01*
X1460582D01*
Y1832244D01*
X1457250Y1828911D01*
D11*
X471849Y1048300D02*
G03*
X471849Y1048300I-53599J0D01*
G01*
X1441243Y1096257D02*
G03*
X1480757Y1096257I19757J-19757D01*
G01*
X1389666Y1107291D02*
G03*
X1413055Y1107319I11717J-19792D01*
G01*
X1322993Y1107506D02*
G03*
X1362507Y1107506I19757J-19757D01*
G01*
X1957743Y1313994D02*
G03*
X1957743Y1353507I19757J19757D01*
G01*
X749399Y1149750D02*
G03*
X749399Y1149750I-53599J0D01*
G01*
X1197493Y1098007D02*
G03*
X1237007Y1098007I19757J-19757D01*
G01*
X382342Y1040880D02*
Y1056120D01*
X375230Y1048500D02*
X390470Y1048500D01*
X1441000Y1096500D02*
X1481000D01*
X1390250Y1107400D02*
X1412750D01*
X1322750Y1107750D02*
X1362750Y1107750D01*
X1957500Y1313750D02*
Y1353750D01*
X688380Y1185658D02*
X703620D01*
X696000Y1177530D02*
Y1192770D01*
X1197250Y1098250D02*
X1237250D01*
X930975Y1042173D02*
Y1047252D01*
Y1044712D01*
X918279D01*
X915740Y1047252D01*
Y1049791D01*
X918279Y1052330D01*
X930975Y1029477D02*
Y1034556D01*
X928436Y1037095D01*
X918279D01*
X915740Y1034556D01*
Y1029477D01*
X918279Y1026938D01*
X928436D01*
X930975Y1029477D01*
Y1021860D02*
X928436D01*
X923358Y1016781D01*
X928436Y1011703D01*
X930975D01*
X923358Y1016781D02*
X915740D01*
X928436Y996468D02*
X930975Y999007D01*
Y1004086D01*
X928436Y1006625D01*
X925897D01*
X923358Y1004086D01*
Y999007D01*
X920818Y996468D01*
X918279D01*
X915740Y999007D01*
Y1004086D01*
X918279Y1006625D01*
X930975Y991390D02*
Y981233D01*
Y986311D01*
X915740D01*
X930975Y976155D02*
Y971076D01*
Y973615D01*
X915740D01*
Y976155D01*
Y971076D01*
X928436Y953302D02*
X930975Y955841D01*
Y960919D01*
X928436Y963459D01*
X918279D01*
X915740Y960919D01*
Y955841D01*
X918279Y953302D01*
X930975Y948224D02*
X915740D01*
X920818D01*
X930975Y938067D01*
X923358Y945685D01*
X915740Y938067D01*
X1044527Y1001466D02*
X1041988Y1004005D01*
X1036909D01*
X1034370Y1001466D01*
Y998927D01*
X1036909Y996387D01*
X1041988D01*
X1044527Y993848D01*
Y991309D01*
X1041988Y988770D01*
X1036909D01*
X1034370Y991309D01*
X1049605Y988770D02*
Y1004005D01*
X1057223D01*
X1059762Y1001466D01*
Y996387D01*
X1057223Y993848D01*
X1049605D01*
X1054684D02*
X1059762Y988770D01*
X1064840Y1004005D02*
X1074997Y988770D01*
Y1004005D02*
X1064840Y988770D01*
X1019407Y1026946D02*
X1016868Y1029485D01*
X1011789D01*
X1009250Y1026946D01*
Y1024407D01*
X1011789Y1021868D01*
X1016868D01*
X1019407Y1019328D01*
Y1016789D01*
X1016868Y1014250D01*
X1011789D01*
X1009250Y1016789D01*
X1024485Y1029485D02*
X1034642Y1014250D01*
Y1029485D02*
X1024485Y1014250D01*
X1039720Y1029485D02*
Y1026946D01*
X1044799Y1021868D01*
X1049877Y1026946D01*
Y1029485D01*
X1044799Y1021868D02*
Y1014250D01*
X1059762Y1052666D02*
X1057223Y1055205D01*
X1052144D01*
X1049605Y1052666D01*
Y1050127D01*
X1052144Y1047588D01*
X1057223D01*
X1059762Y1045048D01*
Y1042509D01*
X1057223Y1039970D01*
X1052144D01*
X1049605Y1042509D01*
X1064840Y1055205D02*
Y1039970D01*
X1069919Y1045048D01*
X1074997Y1039970D01*
Y1055205D01*
X1007250Y971368D02*
X1017407D01*
X1012328Y976446D02*
Y966289D01*
X1032642Y978985D02*
X1022485D01*
Y971368D01*
X1027563Y973907D01*
X1030103D01*
X1032642Y971368D01*
Y966289D01*
X1030103Y963750D01*
X1025024D01*
X1022485Y966289D01*
X1037720Y978985D02*
Y968828D01*
X1042798Y963750D01*
X1047877Y968828D01*
Y978985D01*
X1044527Y950266D02*
X1041988Y952805D01*
X1036909D01*
X1034370Y950266D01*
Y940109D01*
X1036909Y937570D01*
X1041988D01*
X1044527Y940109D01*
Y945188D01*
X1039448D01*
X1049605Y937570D02*
Y952805D01*
X1059762Y937570D01*
Y952805D01*
X1064840D02*
Y937570D01*
X1072458D01*
X1074997Y940109D01*
Y950266D01*
X1072458Y952805D01*
X1064840D01*
X1885669Y1351414D02*
X1884003Y1349748D01*
Y1346416D01*
X1885669Y1344750D01*
X1892334D01*
X1894000Y1346416D01*
Y1349748D01*
X1892334Y1351414D01*
X1884003Y1367750D02*
X1894000D01*
Y1372748D01*
X1892334Y1374415D01*
X1890668D01*
X1889002Y1372748D01*
Y1367750D01*
Y1372748D01*
X1887336Y1374415D01*
X1885669D01*
X1884003Y1372748D01*
Y1367750D01*
Y1328414D02*
Y1321750D01*
X1894000D01*
Y1328414D01*
X1889002Y1321750D02*
Y1325082D01*
X1976000Y1067000D02*
Y1056843D01*
X1970922Y1051765D01*
X1965843Y1056843D01*
Y1067000D01*
Y1059382D01*
X1976000D01*
X1960765Y1067000D02*
Y1051765D01*
X1955687Y1056843D01*
X1950608Y1051765D01*
Y1067000D01*
X1935373Y1054304D02*
X1937912Y1051765D01*
X1942991D01*
X1945530Y1054304D01*
Y1056843D01*
X1942991Y1059382D01*
X1937912D01*
X1935373Y1061922D01*
Y1064461D01*
X1937912Y1067000D01*
X1942991D01*
X1945530Y1064461D01*
X1930295Y1067000D02*
X1925216D01*
X1927756D01*
Y1051765D01*
X1930295Y1054304D01*
X1917599Y1067000D02*
X1912521D01*
X1915060D01*
Y1051765D01*
X1917599Y1054304D01*
X1904903Y1067000D02*
X1899825D01*
X1902364D01*
Y1051765D01*
X1904903Y1054304D01*
X1892207Y1051765D02*
X1882050D01*
Y1054304D01*
X1892207Y1064461D01*
Y1067000D01*
X1861737D02*
Y1051765D01*
X1854120D01*
X1851580Y1054304D01*
Y1059382D01*
X1854120Y1061922D01*
X1861737D01*
X1836345Y1054304D02*
X1838884Y1051765D01*
X1843963D01*
X1846502Y1054304D01*
Y1064461D01*
X1843963Y1067000D01*
X1838884D01*
X1836345Y1064461D01*
X1831267Y1051765D02*
Y1067000D01*
X1823649D01*
X1821110Y1064461D01*
Y1061922D01*
X1823649Y1059382D01*
X1831267D01*
X1823649D01*
X1821110Y1056843D01*
Y1054304D01*
X1823649Y1051765D01*
X1831267D01*
X1989000Y996265D02*
Y1006422D01*
X1983922Y1011500D01*
X1978843Y1006422D01*
Y996265D01*
X1973765D02*
X1968687D01*
X1971226D01*
Y1011500D01*
X1973765D01*
X1968687D01*
X1961069D02*
Y1001343D01*
X1953452D01*
X1950912Y1003882D01*
Y1011500D01*
X1945834Y1003882D02*
X1935677D01*
X1940756Y998804D02*
Y1008961D01*
X1978843Y1028804D02*
X1981382Y1026265D01*
X1986461D01*
X1989000Y1028804D01*
Y1038961D01*
X1986461Y1041500D01*
X1981382D01*
X1978843Y1038961D01*
Y1033882D01*
X1983922D01*
X1973765Y1041500D02*
Y1031343D01*
X1966147D01*
X1963608Y1033882D01*
Y1041500D01*
X1948373Y1026265D02*
Y1041500D01*
X1955991D01*
X1958530Y1038961D01*
Y1033882D01*
X1955991Y1031343D01*
X1948373D01*
X1943295Y1033882D02*
X1933138D01*
X1858843Y1028804D02*
X1861382Y1026265D01*
X1866461D01*
X1869000Y1028804D01*
Y1038961D01*
X1866461Y1041500D01*
X1861382D01*
X1858843Y1038961D01*
Y1033882D01*
X1863922D01*
X1853765Y1041500D02*
Y1031343D01*
X1846147D01*
X1843608Y1033882D01*
Y1041500D01*
X1828373Y1026265D02*
Y1041500D01*
X1835991D01*
X1838530Y1038961D01*
Y1033882D01*
X1835991Y1031343D01*
X1828373D01*
X1823295Y1033882D02*
X1813138D01*
X1884000Y996265D02*
Y1006422D01*
X1878922Y1011500D01*
X1873843Y1006422D01*
Y996265D01*
X1861147D02*
X1866226D01*
X1868765Y998804D01*
Y1008961D01*
X1866226Y1011500D01*
X1861147D01*
X1858608Y1008961D01*
Y998804D01*
X1861147Y996265D01*
X1853530Y1001343D02*
Y1008961D01*
X1850991Y1011500D01*
X1843373D01*
Y1001343D01*
X1835756Y998804D02*
Y1001343D01*
X1838295D01*
X1833216D01*
X1835756D01*
Y1008961D01*
X1833216Y1011500D01*
X1825599Y1003882D02*
X1815442D01*
X1820520Y998804D02*
Y1008961D01*
X618696Y1011000D02*
X621235Y1008461D01*
Y1003382D01*
X618696Y1000843D01*
X616157D01*
X613618Y1003382D01*
X611078Y1000843D01*
X608539D01*
X606000Y1003382D01*
Y1008461D01*
X608539Y1011000D01*
X611078D01*
X613618Y1008461D01*
X616157Y1011000D01*
X618696D01*
X613618Y1008461D02*
Y1003382D01*
X621235Y988147D02*
Y993226D01*
X618696Y995765D01*
X608539D01*
X606000Y993226D01*
Y988147D01*
X608539Y985608D01*
X618696D01*
X621235Y988147D01*
X606000Y980530D02*
Y975452D01*
Y977991D01*
X621235D01*
X618696Y980530D01*
X621235Y967834D02*
X606000D01*
X611078Y962756D01*
X606000Y957677D01*
X621235D01*
X645235Y1019843D02*
Y1030000D01*
X637617D01*
Y1024922D01*
Y1030000D01*
X630000D01*
X645235Y1014765D02*
Y1004608D01*
Y1009687D01*
X630000D01*
X645235Y989373D02*
Y999530D01*
X630000D01*
Y989373D01*
X637617Y999530D02*
Y994452D01*
Y984295D02*
Y974138D01*
X645235Y969060D02*
X630000D01*
X635078Y963981D01*
X630000Y958903D01*
X645235D01*
Y953825D02*
X630000D01*
Y946207D01*
X632539Y943668D01*
X635078D01*
X637617Y946207D01*
Y953825D01*
Y946207D01*
X640157Y943668D01*
X642696D01*
X645235Y946207D01*
Y953825D01*
X642696Y928433D02*
X645235Y930972D01*
Y936050D01*
X642696Y938589D01*
X632539D01*
X630000Y936050D01*
Y930972D01*
X632539Y928433D01*
X427804Y1018907D02*
X425265Y1016368D01*
Y1011289D01*
X427804Y1008750D01*
X437961D01*
X440500Y1011289D01*
Y1016368D01*
X437961Y1018907D01*
X440500Y1031603D02*
X425265D01*
X432882Y1023985D01*
Y1034142D01*
X1385157Y1049446D02*
X1382617Y1051985D01*
X1377539D01*
X1375000Y1049446D01*
Y1039289D01*
X1377539Y1036750D01*
X1382617D01*
X1385157Y1039289D01*
X1390235Y1036750D02*
Y1051985D01*
X1397853D01*
X1400392Y1049446D01*
Y1044368D01*
X1397853Y1041828D01*
X1390235D01*
X1405470Y1051985D02*
Y1039289D01*
X1408009Y1036750D01*
X1413088D01*
X1415627Y1039289D01*
Y1051985D01*
X1430862Y1036750D02*
X1420705D01*
X1430862Y1046907D01*
Y1049446D01*
X1428323Y1051985D01*
X1423244D01*
X1420705Y1049446D01*
X977235Y1027093D02*
Y1032172D01*
Y1029632D01*
X964539D01*
X962000Y1032172D01*
Y1034711D01*
X964539Y1037250D01*
X977235Y1014397D02*
Y1019476D01*
X974696Y1022015D01*
X964539D01*
X962000Y1019476D01*
Y1014397D01*
X964539Y1011858D01*
X974696D01*
X977235Y1014397D01*
Y1006780D02*
X974696D01*
X969617Y1001702D01*
X974696Y996623D01*
X977235D01*
X969617Y1001702D02*
X962000D01*
X974696Y981388D02*
X977235Y983927D01*
Y989006D01*
X974696Y991545D01*
X972157D01*
X969617Y989006D01*
Y983927D01*
X967078Y981388D01*
X964539D01*
X962000Y983927D01*
Y989006D01*
X964539Y991545D01*
X962000Y976310D02*
Y971231D01*
Y973771D01*
X977235D01*
X974696Y976310D01*
X506946Y891346D02*
X509485Y893886D01*
Y898964D01*
X506946Y901503D01*
X496789D01*
X494250Y898964D01*
Y893886D01*
X496789Y891346D01*
X509485Y876111D02*
X506946Y881190D01*
X501867Y886268D01*
X496789D01*
X494250Y883729D01*
Y878651D01*
X496789Y876111D01*
X499328D01*
X501867Y878651D01*
Y886268D01*
X200657Y926696D02*
X198118Y929235D01*
X193039D01*
X190500Y926696D01*
Y916539D01*
X193039Y914000D01*
X198118D01*
X200657Y916539D01*
X215892Y929235D02*
X205735D01*
Y921618D01*
X210813Y924157D01*
X213353D01*
X215892Y921618D01*
Y916539D01*
X213353Y914000D01*
X208274D01*
X205735Y916539D01*
X719000Y970765D02*
Y986000D01*
X713922Y980922D01*
X708843Y986000D01*
Y970765D01*
X693608Y973304D02*
X696147Y970765D01*
X701226D01*
X703765Y973304D01*
Y975843D01*
X701226Y978382D01*
X696147D01*
X693608Y980922D01*
Y983461D01*
X696147Y986000D01*
X701226D01*
X703765Y983461D01*
X678373Y973304D02*
X680912Y970765D01*
X685991D01*
X688530Y973304D01*
Y983461D01*
X685991Y986000D01*
X680912D01*
X678373Y983461D01*
X673295Y986000D02*
X668216D01*
X670756D01*
Y970765D01*
X673295Y973304D01*
X359134Y983729D02*
Y971033D01*
X361673Y968494D01*
X366752D01*
X369291Y971033D01*
Y983729D01*
X374369Y971033D02*
X376908Y968494D01*
X381987D01*
X384526Y971033D01*
Y981190D01*
X381987Y983729D01*
X376908D01*
X374369Y981190D01*
Y978651D01*
X376908Y976112D01*
X384526D01*
X487500Y948250D02*
X472265D01*
Y955867D01*
X474804Y958407D01*
X479883D01*
X482422Y955867D01*
Y948250D01*
Y953328D02*
X487500Y958407D01*
Y971103D02*
X472265D01*
X479883Y963485D01*
Y973642D01*
X487500Y978720D02*
Y983799D01*
Y981259D01*
X472265D01*
X474804Y978720D01*
X193000Y1061500D02*
Y1046265D01*
X185382D01*
X182843Y1048804D01*
Y1053883D01*
X185382Y1056422D01*
X193000D01*
X177765Y1061500D02*
X172687D01*
X175226D01*
Y1046265D01*
X177765Y1048804D01*
X725446Y1170843D02*
X727985Y1173382D01*
Y1178461D01*
X725446Y1181000D01*
X715289D01*
X712750Y1178461D01*
Y1173382D01*
X715289Y1170843D01*
X727985Y1165765D02*
X715289D01*
X712750Y1163226D01*
Y1158147D01*
X715289Y1155608D01*
X727985D01*
X712750Y1150530D02*
X722907D01*
X727985Y1145452D01*
X722907Y1140373D01*
X712750D01*
X720368D01*
Y1150530D01*
X712750Y1135295D02*
Y1130216D01*
Y1132756D01*
X727985D01*
X725446Y1135295D01*
X1215000Y891750D02*
Y901907D01*
X1220078Y906985D01*
X1225157Y901907D01*
Y891750D01*
Y899368D01*
X1215000D01*
X1230235Y891750D02*
X1235313D01*
X1232774D01*
Y906985D01*
X1230235Y904446D01*
X1414750Y906235D02*
Y891000D01*
X1422368D01*
X1424907Y893539D01*
Y896078D01*
X1422368Y898618D01*
X1414750D01*
X1422368D01*
X1424907Y901157D01*
Y903696D01*
X1422368Y906235D01*
X1414750D01*
X1429985Y891000D02*
X1435063D01*
X1432524D01*
Y906235D01*
X1429985Y903696D01*
X1686750Y966595D02*
Y981830D01*
X1679132D01*
X1676593Y979291D01*
Y976752D01*
X1679132Y974213D01*
X1686750D01*
X1679132D01*
X1676593Y971673D01*
Y969134D01*
X1679132Y966595D01*
X1686750D01*
X1671515Y981830D02*
Y971673D01*
X1666436Y966595D01*
X1661358Y971673D01*
Y981830D01*
Y974213D01*
X1671515D01*
X1656280Y966595D02*
X1646123D01*
X1651201D01*
Y981830D01*
X1641045D02*
X1635966D01*
X1638506D01*
Y966595D01*
X1641045Y969134D01*
X302157Y1123196D02*
X299618Y1125735D01*
X294539D01*
X292000Y1123196D01*
Y1113039D01*
X294539Y1110500D01*
X299618D01*
X302157Y1113039D01*
X307235Y1125735D02*
X317392D01*
Y1123196D01*
X307235Y1113039D01*
Y1110500D01*
X294407Y957943D02*
X291868Y960482D01*
X286789D01*
X284250Y957943D01*
Y947786D01*
X286789Y945247D01*
X291868D01*
X294407Y947786D01*
X299485Y957943D02*
X302024Y960482D01*
X307103D01*
X309642Y957943D01*
Y955404D01*
X307103Y952864D01*
X309642Y950325D01*
Y947786D01*
X307103Y945247D01*
X302024D01*
X299485Y947786D01*
Y950325D01*
X302024Y952864D01*
X299485Y955404D01*
Y957943D01*
X302024Y952864D02*
X307103D01*
X599657Y1375696D02*
X597118Y1378235D01*
X592039D01*
X589500Y1375696D01*
Y1365539D01*
X592039Y1363000D01*
X597118D01*
X599657Y1365539D01*
X604735Y1378235D02*
Y1363000D01*
X612353D01*
X614892Y1365539D01*
Y1375696D01*
X612353Y1378235D01*
X604735D01*
X619970Y1363000D02*
X625048D01*
X622509D01*
Y1378235D01*
X619970Y1375696D01*
X768657Y1149696D02*
X766117Y1152235D01*
X761039D01*
X758500Y1149696D01*
Y1139539D01*
X761039Y1137000D01*
X766117D01*
X768657Y1139539D01*
X773735Y1152235D02*
Y1137000D01*
X781353D01*
X783892Y1139539D01*
Y1149696D01*
X781353Y1152235D01*
X773735D01*
X799127Y1137000D02*
X788970D01*
X799127Y1147157D01*
Y1149696D01*
X796588Y1152235D01*
X791509D01*
X788970Y1149696D01*
X1834657Y1383946D02*
X1832117Y1386485D01*
X1827039D01*
X1824500Y1383946D01*
Y1373789D01*
X1827039Y1371250D01*
X1832117D01*
X1834657Y1373789D01*
X1839735Y1386485D02*
Y1371250D01*
X1847353D01*
X1849892Y1373789D01*
Y1383946D01*
X1847353Y1386485D01*
X1839735D01*
X1854970Y1383946D02*
X1857509Y1386485D01*
X1862588D01*
X1865127Y1383946D01*
Y1381407D01*
X1862588Y1378867D01*
X1860049D01*
X1862588D01*
X1865127Y1376328D01*
Y1373789D01*
X1862588Y1371250D01*
X1857509D01*
X1854970Y1373789D01*
X317250Y2532485D02*
Y2517250D01*
X324868D01*
X327407Y2519789D01*
Y2529946D01*
X324868Y2532485D01*
X317250D01*
X332485Y2517250D02*
X337563D01*
X335024D01*
Y2532485D01*
X332485Y2529946D01*
X917250Y2527735D02*
Y2512500D01*
X924867D01*
X927407Y2515039D01*
Y2525196D01*
X924867Y2527735D01*
X917250D01*
X942642Y2512500D02*
X932485D01*
X942642Y2522657D01*
Y2525196D01*
X940103Y2527735D01*
X935024D01*
X932485Y2525196D01*
X329000Y1925985D02*
Y1910750D01*
X336618D01*
X339157Y1913289D01*
Y1923446D01*
X336618Y1925985D01*
X329000D01*
X351853Y1910750D02*
Y1925985D01*
X344235Y1918367D01*
X354392D01*
X832000Y1926735D02*
Y1911500D01*
X839617D01*
X842157Y1914039D01*
Y1924196D01*
X839617Y1926735D01*
X832000D01*
X857392D02*
X847235D01*
Y1919117D01*
X852313Y1921657D01*
X854853D01*
X857392Y1919117D01*
Y1914039D01*
X854853Y1911500D01*
X849774D01*
X847235Y1914039D01*
X1443250Y1927235D02*
Y1912000D01*
X1450867D01*
X1453407Y1914539D01*
Y1924696D01*
X1450867Y1927235D01*
X1443250D01*
X1468642D02*
X1463563Y1924696D01*
X1458485Y1919617D01*
Y1914539D01*
X1461024Y1912000D01*
X1466103D01*
X1468642Y1914539D01*
Y1917078D01*
X1466103Y1919617D01*
X1458485D01*
X1507157Y1046696D02*
X1504617Y1049235D01*
X1499539D01*
X1497000Y1046696D01*
Y1036539D01*
X1499539Y1034000D01*
X1504617D01*
X1507157Y1036539D01*
X1512235Y1034000D02*
Y1049235D01*
X1519853D01*
X1522392Y1046696D01*
Y1041618D01*
X1519853Y1039078D01*
X1512235D01*
X1527470Y1049235D02*
Y1036539D01*
X1530009Y1034000D01*
X1535088D01*
X1537627Y1036539D01*
Y1049235D01*
X1542705Y1034000D02*
X1547784D01*
X1545244D01*
Y1049235D01*
X1542705Y1046696D01*
X1910515Y867080D02*
X1925750D01*
Y874698D01*
X1923211Y877237D01*
X1913054D01*
X1910515Y874698D01*
Y867080D01*
X1913054Y892472D02*
X1910515Y889933D01*
Y884854D01*
X1913054Y882315D01*
X1923211D01*
X1925750Y884854D01*
Y889933D01*
X1923211Y892472D01*
X1918132Y897550D02*
Y907707D01*
X1913054Y902629D02*
X1923211D01*
X1925750Y912785D02*
Y917864D01*
Y915325D01*
X1910515D01*
X1913054Y912785D01*
X1392250Y1125250D02*
Y1140485D01*
X1397328Y1135407D01*
X1402407Y1140485D01*
Y1125250D01*
X1407485D02*
X1412563D01*
X1410024D01*
Y1140485D01*
X1407485Y1137946D01*
X1932000Y1357750D02*
X1947235D01*
Y1350132D01*
X1944696Y1347593D01*
X1939617D01*
X1937078Y1350132D01*
Y1357750D01*
Y1352672D02*
X1932000Y1347593D01*
Y1332358D02*
Y1342515D01*
X1942157Y1332358D01*
X1944696D01*
X1947235Y1334897D01*
Y1339976D01*
X1944696Y1342515D01*
X1947235Y1317123D02*
Y1327280D01*
X1939617D01*
X1942157Y1322202D01*
Y1319662D01*
X1939617Y1317123D01*
X1934539D01*
X1932000Y1319662D01*
Y1324741D01*
X1934539Y1327280D01*
X1977250Y1388985D02*
X1987407D01*
X1982328D01*
Y1373750D01*
X1992485D02*
X1997563D01*
X1995024D01*
Y1388985D01*
X1992485Y1386446D01*
X1845500Y1323735D02*
X1855657D01*
X1850578D01*
Y1308500D01*
X1870892D02*
X1860735D01*
X1870892Y1318657D01*
Y1321196D01*
X1868353Y1323735D01*
X1863274D01*
X1860735Y1321196D01*
X1445500Y1031985D02*
X1455657D01*
X1450578D01*
Y1016750D01*
X1460735Y1029446D02*
X1463274Y1031985D01*
X1468353D01*
X1470892Y1029446D01*
Y1026907D01*
X1468353Y1024368D01*
X1465813D01*
X1468353D01*
X1470892Y1021828D01*
Y1019289D01*
X1468353Y1016750D01*
X1463274D01*
X1460735Y1019289D01*
X1326500Y1049985D02*
X1336657D01*
X1331578D01*
Y1034750D01*
X1349353D02*
Y1049985D01*
X1341735Y1042367D01*
X1351892D01*
X1203750Y1040235D02*
X1213907D01*
X1208828D01*
Y1025000D01*
X1229142Y1040235D02*
X1218985D01*
Y1032617D01*
X1224063Y1035157D01*
X1226603D01*
X1229142Y1032617D01*
Y1027539D01*
X1226603Y1025000D01*
X1221524D01*
X1218985Y1027539D01*
X510765Y1232250D02*
X523461D01*
X526000Y1234789D01*
Y1239867D01*
X523461Y1242407D01*
X510765D01*
X526000Y1247485D02*
Y1252563D01*
Y1250024D01*
X510765D01*
X513304Y1247485D01*
X833735Y1297250D02*
X821039D01*
X818500Y1294711D01*
Y1289632D01*
X821039Y1287093D01*
X833735D01*
X818500Y1271858D02*
Y1282015D01*
X828657Y1271858D01*
X831196D01*
X833735Y1274397D01*
Y1279476D01*
X831196Y1282015D01*
X1778765Y1235250D02*
X1791461D01*
X1794000Y1237789D01*
Y1242868D01*
X1791461Y1245407D01*
X1778765D01*
X1781304Y1250485D02*
X1778765Y1253024D01*
Y1258103D01*
X1781304Y1260642D01*
X1783843D01*
X1786382Y1258103D01*
Y1255563D01*
Y1258103D01*
X1788922Y1260642D01*
X1791461D01*
X1794000Y1258103D01*
Y1253024D01*
X1791461Y1250485D01*
X387015Y1246500D02*
X399711D01*
X402250Y1249039D01*
Y1254118D01*
X399711Y1256657D01*
X387015D01*
X402250Y1269353D02*
X387015D01*
X394632Y1261735D01*
Y1271892D01*
X955235Y1289250D02*
X942539D01*
X940000Y1286711D01*
Y1281633D01*
X942539Y1279093D01*
X955235D01*
Y1263858D02*
Y1274015D01*
X947617D01*
X950157Y1268937D01*
Y1266397D01*
X947617Y1263858D01*
X942539D01*
X940000Y1266397D01*
Y1271476D01*
X942539Y1274015D01*
X1652765Y1250500D02*
X1665461D01*
X1668000Y1253039D01*
Y1258118D01*
X1665461Y1260657D01*
X1652765D01*
Y1275892D02*
X1655304Y1270813D01*
X1660383Y1265735D01*
X1665461D01*
X1668000Y1268274D01*
Y1273353D01*
X1665461Y1275892D01*
X1662922D01*
X1660383Y1273353D01*
Y1265735D01*
X1900402Y1278385D02*
Y1265689D01*
X1902941Y1263150D01*
X1908020D01*
X1910559Y1265689D01*
Y1278385D01*
X1915637Y1275846D02*
X1918176Y1278385D01*
X1923255D01*
X1925794Y1275846D01*
Y1273307D01*
X1923255Y1270768D01*
X1925794Y1268228D01*
Y1265689D01*
X1923255Y1263150D01*
X1918176D01*
X1915637Y1265689D01*
Y1268228D01*
X1918176Y1270768D01*
X1915637Y1273307D01*
Y1275846D01*
X1918176Y1270768D02*
X1923255D01*
X1935500Y976765D02*
Y989461D01*
X1932961Y992000D01*
X1927883D01*
X1925343Y989461D01*
Y976765D01*
X1920265Y992000D02*
X1915187D01*
X1917726D01*
Y976765D01*
X1920265Y979304D01*
X1907569D02*
X1905030Y976765D01*
X1899951D01*
X1897412Y979304D01*
Y989461D01*
X1899951Y992000D01*
X1905030D01*
X1907569Y989461D01*
Y979304D01*
D12*
X469001Y863003D02*
G03*
X489001Y863003I10000J0D01*
G01*
X489000Y903503D02*
G03*
X469000Y903503I-10000J0D01*
G01*
X312499Y1016497D02*
G03*
X292499Y1016497I-10000J0D01*
G01*
X292500Y975997D02*
G03*
X312500Y975997I10000J0D01*
G01*
X291751Y1043750D02*
G03*
X311751Y1043750I10000J0D01*
G01*
X311750Y1084250D02*
G03*
X291750Y1084250I-10000J0D01*
G01*
X1804000Y1363750D02*
G03*
X1804000Y1383750I0J10000D01*
G01*
X1763500Y1383749D02*
G03*
X1763500Y1363749I0J-10000D01*
G01*
X532747Y1382500D02*
G03*
X532747Y1362500I0J-10000D01*
G01*
X573247Y1362501D02*
G03*
X573247Y1382501I0J10000D01*
G01*
X807500Y1170000D02*
G03*
X807500Y1150000I0J-10000D01*
G01*
X848000Y1150001D02*
G03*
X848000Y1170001I0J10000D01*
G01*
X1941750Y1252700D02*
G03*
X1954450Y1252700I6350J0D01*
G01*
X400500Y958200D02*
G03*
X413200Y958200I6350J0D01*
G01*
X2009750Y886025D02*
G03*
X2009750Y904136I0J9055D01*
G01*
X404750Y1154300D02*
G03*
X392050Y1154300I-6350J0D01*
G01*
X941750Y1381950D02*
G03*
X954450Y1381950I6350J0D01*
G01*
X1668500Y1154300D02*
G03*
X1655800Y1154300I-6350J0D01*
G01*
X1541541Y1097584D02*
G03*
X1541569Y1074195I-19792J-11717D01*
G01*
X489001Y863003D02*
X489001Y903502D01*
X469000Y863003D02*
X469000Y903503D01*
X292499Y975998D02*
Y1016497D01*
X312500Y975997D02*
Y1016497D01*
X311751Y1043750D02*
X311751Y1084249D01*
X291750Y1043750D02*
Y1084250D01*
X1880250Y1307500D02*
X1919750D01*
Y1388000D01*
X1880250D02*
X1919750D01*
X1880250Y1307500D02*
Y1388000D01*
X1763500Y1383750D02*
X1804000Y1383750D01*
X1763500Y1363749D02*
X1803999D01*
X532747Y1362500D02*
X573247Y1362500D01*
X532748Y1382501D02*
X573247D01*
X807500Y1150000D02*
X848000Y1150000D01*
X807501Y1170001D02*
X848000D01*
X1931590Y1151100D02*
Y1252700D01*
Y1151100D02*
X1964610D01*
Y1252700D01*
X1954450D02*
X1964610D01*
X1931590D02*
X1941750D01*
X390340Y958200D02*
X390340Y856600D01*
X423360D01*
X423360Y958200D01*
X413200Y958200D02*
X423360Y958200D01*
X390340Y958200D02*
X400500Y958200D01*
X215500Y1011500D02*
X259000D01*
X215500D02*
X215500Y1011500D01*
Y1031500D01*
X215500Y1091500D02*
X258750Y1091500D01*
X215500Y1091500D02*
X215500Y1091500D01*
Y1071500D02*
Y1091500D01*
X238000Y1051500D02*
X260000D01*
X414910Y1154300D02*
Y1382900D01*
X381890D02*
X414910D01*
X381890Y1154300D02*
Y1382900D01*
Y1154300D02*
X392050D01*
X404750D02*
X414910D01*
X931590Y1153350D02*
Y1381950D01*
Y1153350D02*
X964610D01*
Y1381950D01*
X954450D02*
X964610D01*
X931590D02*
X941750D01*
X1678660Y1154300D02*
Y1382900D01*
X1645640D02*
X1678660D01*
X1645640Y1154300D02*
Y1382900D01*
Y1154300D02*
X1655800D01*
X1668500D02*
X1678660D01*
X2050000Y2647460D02*
Y2652540D01*
X130000Y2647460D02*
Y2652540D01*
X2034760Y2644920D02*
X2050000Y2650000D01*
X2034760Y2655080D02*
X2050000Y2650000D01*
X130000D02*
X145240Y2644920D01*
X130000Y2650000D02*
X145240Y2655080D01*
X1147387Y2650000D02*
X2050000D01*
X130000D02*
X1032613D01*
X2067460Y2620000D02*
X2072540D01*
X2067460Y840000D02*
X2072540D01*
X2070000Y2620000D02*
X2075080Y2604760D01*
X2064920D02*
X2070000Y2620000D01*
Y840000D02*
X2075080Y855240D01*
X2064920D02*
X2070000Y840000D01*
Y1787387D02*
Y2620000D01*
Y840000D02*
Y1672613D01*
X1541650Y1074500D02*
Y1097000D01*
X1448250Y2536235D02*
Y2521000D01*
X1455867D01*
X1458407Y2523539D01*
Y2533696D01*
X1455867Y2536235D01*
X1448250D01*
X1463485Y2533696D02*
X1466024Y2536235D01*
X1471103D01*
X1473642Y2533696D01*
Y2531157D01*
X1471103Y2528618D01*
X1468563D01*
X1471103D01*
X1473642Y2526078D01*
Y2523539D01*
X1471103Y2521000D01*
X1466024D01*
X1463485Y2523539D01*
D13*
X513750Y1354700D02*
G03*
X526450Y1354700I6350J0D01*
G01*
X829500Y1179550D02*
G03*
X816800Y1179550I-6350J0D01*
G01*
X1781750Y1354700D02*
G03*
X1794450Y1354700I6350J0D01*
G01*
X1951750Y1337750D02*
X1951750Y1335250D01*
X1924750D02*
X1924750Y1337750D01*
X493000Y967000D02*
Y969500D01*
X466000Y967000D02*
Y969500D01*
X502850Y1151500D02*
Y1354700D01*
Y1151500D02*
X537350Y1151500D01*
Y1354700D01*
X526450D02*
X537350D01*
X502850Y1354700D02*
X513750Y1354700D01*
X840400Y1179550D02*
Y1382750D01*
X805900Y1382750D02*
X840400Y1382750D01*
X805900Y1179550D02*
Y1382750D01*
Y1179550D02*
X816800D01*
X829500D02*
X840400Y1179550D01*
X1770850Y1151500D02*
Y1354700D01*
Y1151500D02*
X1805350Y1151500D01*
Y1354700D01*
X1794450D02*
X1805350D01*
X1770850Y1354700D02*
X1781750Y1354700D01*
D14*
X1694043Y887435D02*
G03*
X1621715Y886475I-37543J103395D01*
G01*
X284145Y923250D02*
G03*
X284145Y923250I-28145J0D01*
G01*
X1380750Y890000D02*
X1400750D01*
X1400750Y905000D01*
X1415750Y920000D01*
X1400750D02*
X1400750Y945000D01*
X1380750D02*
X1400750D01*
X1450750Y945000D02*
X1470750Y945000D01*
X1450750Y920000D02*
Y945000D01*
X1435750Y920000D02*
X1450750Y905000D01*
Y890000D02*
Y905000D01*
Y890000D02*
X1470750D01*
X1345750Y850000D02*
X1505750D01*
X1345750D02*
Y985000D01*
X1505750D01*
Y850000D02*
Y985000D01*
X1180000Y890000D02*
X1200000D01*
X1200000Y905000D01*
X1215000Y920000D01*
X1200000D02*
X1200000Y945000D01*
X1180000D02*
X1200000D01*
X1250000Y945000D02*
X1270000Y945000D01*
X1250000Y920000D02*
Y945000D01*
X1235000Y920000D02*
X1250000Y905000D01*
Y890000D02*
Y905000D01*
Y890000D02*
X1270000D01*
X1145000Y850000D02*
X1305000D01*
X1145000D02*
Y985000D01*
X1305000D01*
Y850000D02*
Y985000D01*
X233000Y1051500D02*
X238000D01*
X228000D02*
X233000D01*
X228000D02*
X233000Y1054000D01*
Y1049000D02*
Y1054000D01*
X228000Y1051500D02*
X233000Y1049000D01*
X215500Y1071500D02*
X225500Y1066500D01*
X215500Y1061500D02*
X225500Y1066500D01*
X215500Y1061500D02*
X225500Y1056500D01*
X215500Y1051500D02*
X225500Y1056500D01*
X215500Y1051500D02*
X225500Y1046500D01*
X215500Y1041500D02*
X225500Y1046500D01*
X215500Y1041500D02*
X225500Y1036500D01*
X215500Y1031500D02*
X225500Y1036500D01*
X90500Y969000D02*
Y1134000D01*
X275500D01*
Y969000D02*
Y1134000D01*
X90500Y969000D02*
X275500D01*
X1693985Y848330D02*
X1694104Y887268D01*
X1621500Y848330D02*
Y886475D01*
Y848330D02*
X1693985D01*
X1656500Y1028330D02*
X1656500Y1045830D01*
Y888330D02*
Y908330D01*
Y888330D02*
Y898330D01*
X1644000Y898330D02*
X1656500Y898330D01*
X1644000Y898330D02*
X1656500Y898330D01*
X1669000Y898330D01*
X1656500Y898330D02*
X1669000Y898330D01*
X268450Y910150D02*
X274700D01*
X271700Y912850D02*
X271700Y907100D01*
X1456500Y1220750D02*
Y1210753D01*
X1451501D01*
X1449835Y1212419D01*
Y1215751D01*
X1451501Y1217418D01*
X1456500D01*
X1453168D02*
X1449835Y1220750D01*
X1446503D02*
X1441505D01*
X1439839Y1219084D01*
X1441505Y1217418D01*
X1444837D01*
X1446503Y1215751D01*
X1444837Y1214085D01*
X1439839D01*
X1434840Y1212419D02*
Y1214085D01*
X1436506D01*
X1433174D01*
X1434840D01*
Y1219084D01*
X1433174Y1220750D01*
X1448975Y1174629D02*
X1450641Y1172962D01*
X1453974D01*
X1455640Y1174629D01*
Y1181293D01*
X1453974Y1182959D01*
X1450641D01*
X1448975Y1181293D01*
X1445643Y1172962D02*
Y1182959D01*
Y1177961D01*
X1443977Y1176295D01*
X1440645D01*
X1438979Y1177961D01*
Y1182959D01*
X1435646D02*
Y1172962D01*
X1430648D01*
X1428982Y1174629D01*
Y1177961D01*
X1430648Y1179627D01*
X1435646D01*
X1374360Y1208359D02*
X1371028D01*
X1372694D01*
Y1201695D01*
X1374360D01*
X1364363Y1208359D02*
X1361031D01*
X1359365Y1206693D01*
Y1203361D01*
X1361031Y1201695D01*
X1364363D01*
X1366029Y1203361D01*
Y1206693D01*
X1364363Y1208359D01*
X1356033Y1200029D02*
X1354366Y1198362D01*
X1351034D01*
X1349368Y1200029D01*
Y1206693D01*
X1351034Y1208359D01*
X1354366D01*
X1356033Y1206693D01*
Y1200029D01*
X1374360Y1182959D02*
X1371028D01*
X1372694D01*
Y1176295D01*
X1374360D01*
X1364363Y1182959D02*
X1361031D01*
X1359365Y1181293D01*
Y1177961D01*
X1361031Y1176295D01*
X1364363D01*
X1366029Y1177961D01*
Y1181293D01*
X1364363Y1182959D01*
X1349368D02*
X1356033D01*
X1349368Y1176295D01*
Y1174629D01*
X1351034Y1172962D01*
X1354366D01*
X1356033Y1174629D01*
X1445480Y1147562D02*
X1438815D01*
X1442148D01*
Y1157559D01*
X1435483Y1150895D02*
X1428819Y1157559D01*
X1432151Y1154227D01*
X1428819Y1150895D01*
X1435483Y1157559D01*
X1374360Y1233759D02*
Y1223762D01*
X1369362D01*
X1367695Y1225429D01*
Y1228761D01*
X1369362Y1230427D01*
X1374360D01*
X1371028D02*
X1367695Y1233759D01*
X1364363Y1227095D02*
X1357699Y1233759D01*
X1361031Y1230427D01*
X1357699Y1227095D01*
X1364363Y1233759D01*
X1456250Y1229003D02*
Y1235668D01*
X1452918Y1239000D01*
X1449585Y1235668D01*
Y1229003D01*
X1439589Y1232336D02*
X1444587D01*
X1446253Y1234002D01*
Y1237334D01*
X1444587Y1239000D01*
X1439589D01*
X1429592Y1232336D02*
X1434590D01*
X1436256Y1234002D01*
Y1237334D01*
X1434590Y1239000D01*
X1429592D01*
X1367695Y1149229D02*
X1369362Y1147562D01*
X1372694D01*
X1374360Y1149229D01*
Y1155893D01*
X1372694Y1157559D01*
X1369362D01*
X1367695Y1155893D01*
Y1152561D01*
X1371028D01*
X1364363Y1157559D02*
Y1150895D01*
X1359365D01*
X1357699Y1152561D01*
Y1157559D01*
X1347702Y1147562D02*
Y1157559D01*
X1352700D01*
X1354366Y1155893D01*
Y1152561D01*
X1352700Y1150895D01*
X1347702D01*
D15*
X1444306Y1066750D02*
X1447269D01*
X1448750Y1065269D01*
Y1062307D01*
X1447269Y1060825D01*
X1444306D01*
X1442825Y1062307D01*
Y1063788D01*
X1448750D01*
X1463500Y1083363D02*
Y1092250D01*
X1459056D01*
X1457575Y1090769D01*
Y1089288D01*
Y1087806D01*
X1459056Y1086325D01*
X1463500D01*
X1473825Y1060825D02*
X1478269D01*
X1479750Y1062306D01*
Y1065269D01*
X1478269Y1066750D01*
X1473825D01*
X1355575Y1072075D02*
X1360019D01*
X1361500Y1073556D01*
Y1076519D01*
X1360019Y1078000D01*
X1355575D01*
X1345250Y1094613D02*
Y1103500D01*
X1340806D01*
X1339325Y1102019D01*
Y1100538D01*
Y1099056D01*
X1340806Y1097575D01*
X1345250D01*
X1326056Y1078000D02*
X1329019D01*
X1330500Y1076519D01*
Y1073556D01*
X1329019Y1072075D01*
X1326056D01*
X1324575Y1073556D01*
Y1075038D01*
X1330500D01*
X1987250Y1317056D02*
Y1320019D01*
X1988731Y1321500D01*
X1991694D01*
X1993175Y1320019D01*
Y1317056D01*
X1991694Y1315575D01*
X1990212D01*
Y1321500D01*
X1970637Y1336250D02*
X1961750D01*
Y1331806D01*
X1963231Y1330325D01*
X1964712D01*
X1966194D01*
X1967675Y1331806D01*
Y1336250D01*
X1993175Y1346575D02*
Y1351019D01*
X1991694Y1352500D01*
X1988731D01*
X1987250Y1351019D01*
Y1346575D01*
X1230075Y1062575D02*
X1234519D01*
X1236000Y1064056D01*
Y1067019D01*
X1234519Y1068500D01*
X1230075D01*
X1219750Y1085113D02*
Y1094000D01*
X1215306D01*
X1213825Y1092519D01*
Y1091038D01*
Y1089556D01*
X1215306Y1088075D01*
X1219750D01*
X1200556Y1068500D02*
X1203519D01*
X1205000Y1067019D01*
Y1064056D01*
X1203519Y1062575D01*
X1200556D01*
X1199075Y1064056D01*
Y1065538D01*
X1205000D01*
D16*
X1035153Y2640858D02*
X1040232D01*
X1037692D01*
Y2656093D01*
X1035153Y2653554D01*
X1047849Y2643398D02*
X1050388Y2640858D01*
X1055467D01*
X1058006Y2643398D01*
Y2653554D01*
X1055467Y2656093D01*
X1050388D01*
X1047849Y2653554D01*
Y2651015D01*
X1050388Y2648476D01*
X1058006D01*
X1073241Y2640858D02*
X1063084D01*
X1073241Y2651015D01*
Y2653554D01*
X1070702Y2656093D01*
X1065623D01*
X1063084Y2653554D01*
X1098633Y2640858D02*
X1093554Y2645937D01*
Y2651015D01*
X1098633Y2656093D01*
X1106250Y2640858D02*
Y2651015D01*
X1108789D01*
X1111329Y2648476D01*
Y2640858D01*
Y2648476D01*
X1113868Y2651015D01*
X1116407Y2648476D01*
Y2640858D01*
X1121485D02*
Y2651015D01*
X1124025D01*
X1126564Y2648476D01*
Y2640858D01*
Y2648476D01*
X1129103Y2651015D01*
X1131642Y2648476D01*
Y2640858D01*
X1136720D02*
X1141799Y2645937D01*
Y2651015D01*
X1136720Y2656093D01*
X2079142Y1675153D02*
Y1680232D01*
Y1677692D01*
X2063907D01*
X2066446Y1675153D01*
X2063907Y1687849D02*
Y1698006D01*
X2066446D01*
X2076602Y1687849D01*
X2079142D01*
X2066446Y1703084D02*
X2063907Y1705623D01*
Y1710702D01*
X2066446Y1713241D01*
X2068985D01*
X2071524Y1710702D01*
X2074063Y1713241D01*
X2076602D01*
X2079142Y1710702D01*
Y1705623D01*
X2076602Y1703084D01*
X2074063D01*
X2071524Y1705623D01*
X2068985Y1703084D01*
X2066446D01*
X2071524Y1705623D02*
Y1710702D01*
X2079142Y1738633D02*
X2074063Y1733554D01*
X2068985D01*
X2063907Y1738633D01*
X2079142Y1746250D02*
X2068985D01*
Y1748789D01*
X2071524Y1751329D01*
X2079142D01*
X2071524D01*
X2068985Y1753868D01*
X2071524Y1756407D01*
X2079142D01*
Y1761485D02*
X2068985D01*
Y1764025D01*
X2071524Y1766564D01*
X2079142D01*
X2071524D01*
X2068985Y1769103D01*
X2071524Y1771642D01*
X2079142D01*
Y1776720D02*
X2074063Y1781799D01*
X2068985D01*
X2063907Y1776720D01*
D17*
X1302605Y1162003D02*
D03*
D18*
X1297527Y1231854D02*
D03*
D19*
X185625Y2454750D02*
D03*
X788375D02*
D03*
X1390875D02*
D03*
X185375Y1851250D02*
D03*
X788375D02*
D03*
X1391375D02*
D03*
D20*
X236625Y2005625D02*
D03*
X839375D02*
D03*
X1441875D02*
D03*
X236375Y1402125D02*
D03*
X839375D02*
D03*
X1442375D02*
D03*
D21*
X185875Y2152250D02*
D03*
X788625D02*
D03*
X1391125D02*
D03*
X185625Y1548750D02*
D03*
X788625D02*
D03*
X1391625D02*
D03*
D22*
X785875Y2304875D02*
D03*
X1388625D02*
D03*
X1991125D02*
D03*
X785625Y1701375D02*
D03*
X1388625D02*
D03*
X1991625D02*
D03*
D23*
X784125Y2555500D02*
D03*
X1386875D02*
D03*
X1989375D02*
D03*
X783875Y1952000D02*
D03*
X1386875D02*
D03*
X1989875D02*
D03*
D24*
X637500Y2603750D02*
D03*
X1240250D02*
D03*
X1842750D02*
D03*
X637250Y2000250D02*
D03*
X1240250D02*
D03*
X1843250D02*
D03*
D25*
X337000Y2604125D02*
D03*
X939750D02*
D03*
X1542250D02*
D03*
X336750Y2000625D02*
D03*
X939750D02*
D03*
X1542750D02*
D03*
D26*
X785875Y2054250D02*
D03*
X1388625D02*
D03*
X1991125D02*
D03*
X785625Y1450750D02*
D03*
X1388625D02*
D03*
X1991625D02*
D03*
D27*
X738125Y2005875D02*
D03*
X1340875D02*
D03*
X1943375D02*
D03*
X737875Y1402375D02*
D03*
X1340875D02*
D03*
X1943875D02*
D03*
D28*
X487250Y2005625D02*
D03*
X1090000D02*
D03*
X1692500D02*
D03*
X487000Y1402125D02*
D03*
X1090000D02*
D03*
X1693000D02*
D03*
D29*
X232500Y2392625D02*
D03*
X835250D02*
D03*
X1437750D02*
D03*
X232250Y1789125D02*
D03*
X835250D02*
D03*
X1438250D02*
D03*
M02*
